<svg width="512" height="512" viewBox="0 0 512 512" fill="none" xmlns="http://www.w3.org/2000/svg">
<g clip-path="url(#clip0_2159_60)">
<path d="M0 0H512V512H0V0Z" fill="#4C4C51"/>
<path d="M327.553 163.626C336.303 163.347 345.173 163.626 353.933 163.504C357.085 163.46 360.355 163.497 363.495 163.711L363.468 168.907C366.675 168.904 370.38 168.977 373.538 168.804L373.49 173.896C375.14 173.815 377.265 173.906 378.953 173.934C378.763 175.552 378.773 177.358 378.74 179.003L383.99 178.996L384.05 184.181L393.998 184.252L394.01 189.296L393.988 189.547C394.003 190.996 394.07 192.905 393.998 194.319L393.843 194.462C393.973 196.268 394.013 197.708 394.018 199.521L399.04 199.52L404.475 199.537L404.46 194.7C405.738 194.352 408.085 194.46 409.498 194.465L409.53 204.526C406.41 204.526 402.21 204.424 399.205 204.716L399.253 209.755L383.98 209.747C384.018 211.462 384.033 213.179 384.025 214.895C382.263 214.905 380.498 214.936 378.735 214.987C378.768 216.656 378.75 218.304 379.015 219.95C377.21 219.987 375.285 220.059 373.49 220.028L373.51 240.549L378.813 240.491L378.81 271.26L373.505 271.252L373.528 286.5L368.51 286.507L368.528 296.81C366.803 296.83 365.078 296.89 363.355 296.987L363.483 301.92L358.313 302.002C358.315 305.337 358.255 308.902 358.338 312.217L353.205 312.24C353.185 313.815 353.1 315.882 353.22 317.412C351.483 317.347 349.745 317.307 348.008 317.29L348.055 322.477L343.01 322.497L343.043 327.507C341.708 327.515 338.883 327.617 337.715 327.352L337.765 322.485C332.685 322.537 327.42 322.457 322.325 322.44L322.315 317.5C320.705 317.43 319.098 317.432 317.488 317.422L312.255 317.417V312.252L307.043 312.255L307.02 301.977L302.003 301.99L302.013 291.695C300.35 291.76 298.64 291.622 296.978 291.53L296.813 291.547C295.37 291.837 293.275 291.767 291.738 291.775L291.705 296.747L291.485 296.782L291.483 291.685C289.868 291.727 288.183 291.712 286.56 291.725C284.873 291.73 283.185 291.715 281.498 291.677C280.053 291.605 277.988 291.692 276.498 291.71L276.495 286.527L271.228 286.535L267.09 286.52L266.025 286.44C264.92 286.505 261.868 286.702 261.01 286.222L260.94 286.532L256.09 286.56L250.82 286.555C250.758 284.87 250.783 283.257 250.803 281.577C247.635 281.395 243.778 281.495 240.55 281.507L235.249 281.522C235.521 279.57 234.928 278.417 235.564 276.86C236.363 276.285 236.273 276.48 237.465 276.44L237.4 276.277C235.016 276.25 232.631 276.245 230.247 276.26L230.293 271.475L230.059 271.105C230.402 269.872 230.2 267.625 230.032 266.347L229.569 266.065C231.449 265.99 233.576 266.017 235.477 265.995C235.487 264.562 235.442 263.13 235.342 261.7L235.532 261.145L236.169 260.9L235.682 260.685C235.356 259.93 235.449 257.012 235.424 255.927C234.688 255.787 231.46 255.97 230.511 256.005C230.499 254.437 230.5 253.542 230.278 251.985L230.225 250.742L230.252 245.645L235.478 245.572C235.419 243.898 235.471 242.164 235.497 240.484C238.837 240.477 242.178 240.512 245.517 240.589L245.676 240.547C245.513 238.566 245.609 237.471 245.756 235.472C248.981 235.393 252.843 235.257 256.005 235.539L256.173 235.484C255.85 234.458 255.98 231.51 255.995 230.246C259.36 230.292 262.633 230.196 266.025 230.317L266.148 230.279C266.018 228.171 266.038 227.153 266.183 225.041L269.933 225.064C272.04 224.901 274.13 225.044 276.238 225.138C276.225 224.141 276.148 223.264 276.393 222.301C276.43 221.517 276.345 220.694 276.788 220.111C278.963 219.824 284.088 219.948 286.52 219.952C286.505 218.339 286.555 216.628 286.575 215.007L291.81 214.923C291.778 211.451 291.763 207.979 291.765 204.507L296.928 204.512C296.865 201.251 296.935 197.771 296.945 194.492L301.97 194.482C301.88 190.956 301.933 187.65 302.003 184.121C303.63 184.212 305.388 184.224 307.028 184.264C307.038 182.557 307.15 180.734 307.225 179.018L312.29 178.973L312.265 173.921C314.063 173.864 315.53 173.879 317.33 173.941C317.283 172.404 317.393 170.449 317.438 168.878C320.803 168.76 324.17 168.748 327.535 168.843L327.553 163.626Z" fill="black"/>
<path d="M276.238 225.138C276.225 224.142 276.148 223.264 276.393 222.301L276.423 225.029C279.815 225.049 283.16 225.049 286.548 225.221C286.688 228.698 286.555 232.186 286.473 235.667C283.28 235.401 279.69 235.5 276.443 235.442C276.308 237.116 276.128 238.863 276.428 240.524L286.535 240.527C289.965 240.516 293.583 240.448 296.995 240.518C300.348 240.512 303.7 240.525 307.053 240.556L307.013 243.38C307.065 249.737 306.87 256.858 307.028 263.093C307.033 265.755 306.993 268.6 307.053 271.248L302.03 271.2L301.955 276.3C301.955 277.96 301.913 279.86 301.98 281.498C300.37 281.508 298.603 281.555 297.005 281.523C296.975 283.17 296.903 284.863 297.04 286.5L296.978 291.53L296.813 291.548C295.37 291.838 293.275 291.768 291.738 291.775L291.705 296.748L291.485 296.783L291.483 291.685C289.868 291.728 288.183 291.713 286.56 291.725C284.873 291.73 283.185 291.715 281.498 291.678C280.053 291.605 277.988 291.693 276.498 291.71L276.495 286.528L271.228 286.535L267.09 286.52L266.025 286.44C264.92 286.505 261.868 286.703 261.01 286.223L260.94 286.533L256.09 286.56L250.82 286.555C250.758 284.87 250.783 283.258 250.803 281.578C247.635 281.395 243.778 281.495 240.55 281.508L235.249 281.523C235.521 279.57 234.928 278.418 235.564 276.86C236.363 276.285 236.273 276.48 237.465 276.44L237.4 276.278C235.016 276.25 232.631 276.245 230.247 276.26L230.293 271.475L230.059 271.105C230.402 269.873 230.2 267.625 230.032 266.348L229.569 266.065C231.449 265.99 233.576 266.018 235.477 265.995C235.487 264.563 235.442 263.13 235.342 261.7L235.532 261.145L236.169 260.9L235.682 260.685C235.356 259.93 235.449 257.013 235.424 255.928C234.688 255.788 231.46 255.97 230.511 256.005C230.499 254.438 230.5 253.543 230.278 251.985L230.225 250.743L230.252 245.645L235.478 245.572C235.419 243.898 235.471 242.164 235.497 240.484C238.837 240.477 242.178 240.512 245.517 240.589L245.676 240.547C245.513 238.566 245.609 237.472 245.756 235.472C248.981 235.393 252.843 235.257 256.005 235.539L256.173 235.484C255.85 234.458 255.98 231.511 255.995 230.246C259.36 230.292 262.633 230.196 266.025 230.318L266.148 230.28C266.018 228.172 266.038 227.153 266.183 225.041L269.933 225.065C272.04 224.901 274.13 225.045 276.238 225.138Z" fill="#4F5694"/>
<path d="M276.238 225.138C276.225 224.142 276.148 223.264 276.393 222.301L276.423 225.029C279.815 225.049 283.16 225.049 286.548 225.221C286.688 228.698 286.555 232.186 286.473 235.667C283.28 235.401 279.69 235.5 276.443 235.442C276.308 237.116 276.128 238.863 276.428 240.524L276.343 241.868C276.333 243.066 276.303 244.274 276.363 245.469L271.145 245.515V245.737C269.518 245.679 267.895 245.419 266.46 246.038C266.073 246.65 266.133 246.854 266.08 247.582C266.073 248.645 266.058 249.707 266.033 250.77L260.978 250.728C259.443 250.678 257.718 250.72 256.17 250.73L256.005 250.905C255.973 252.593 255.92 254.28 255.973 255.965L250.773 255.993L248.068 255.968C247.251 255.985 246.337 256.03 245.532 255.988L235.424 255.928C234.688 255.788 231.46 255.97 230.511 256.005C230.499 254.438 230.5 253.543 230.278 251.985L230.225 250.743L230.252 245.645L235.478 245.572C235.419 243.898 235.471 242.164 235.497 240.484C238.837 240.477 242.178 240.512 245.517 240.589L245.676 240.547C245.513 238.566 245.609 237.472 245.756 235.472C248.981 235.393 252.843 235.257 256.005 235.539L256.173 235.484C255.85 234.458 255.98 231.511 255.995 230.246C259.36 230.292 262.633 230.196 266.025 230.318L266.148 230.28C266.018 228.172 266.038 227.153 266.183 225.041L269.933 225.065C272.04 224.901 274.13 225.045 276.238 225.138Z" fill="#3B3B70"/>
<path d="M276.237 225.138C276.225 224.142 276.147 223.264 276.392 222.301L276.422 225.029C279.815 225.049 283.16 225.049 286.547 225.221C286.687 228.698 286.555 232.186 286.472 235.667C283.28 235.401 279.69 235.5 276.442 235.442C278.28 235.246 279.617 235.278 281.475 235.305C281.615 233.475 281.65 232.218 281.627 230.382C279.872 230.31 278.12 230.282 276.365 230.3C273.272 230.16 269.307 230.275 266.147 230.28C266.017 228.172 266.037 227.153 266.182 225.041L269.932 225.065C272.04 224.901 274.13 225.045 276.237 225.138Z" fill="#493A6D"/>
<path d="M266.182 225.041L269.932 225.065C272.04 225.154 274.145 225.211 276.252 225.233C276.282 226.84 276.27 228.719 276.365 230.3C273.272 230.16 269.307 230.275 266.147 230.28C266.017 228.172 266.037 227.153 266.182 225.041Z" fill="black"/>
<path d="M235.497 240.484C238.837 240.477 242.178 240.512 245.517 240.589C245.533 242.011 245.496 244.195 245.663 245.547C242.272 245.695 238.878 245.744 235.485 245.695L235.503 250.75L230.225 250.743L230.252 245.645L235.478 245.572C235.419 243.898 235.471 242.164 235.497 240.484Z" fill="black"/>
<path d="M245.686 250.82C248.045 250.785 253.91 250.598 256.005 250.905C255.972 252.593 255.92 254.28 255.972 255.965L250.772 255.993L248.068 255.968C246.871 255.833 246.627 256.018 245.852 255.393C245.325 254.195 245.65 252.223 245.686 250.82Z" fill="#24264E"/>
<path d="M245.755 235.472C248.981 235.393 252.842 235.257 256.005 235.539L256 240.519C252.84 240.514 248.765 240.391 245.676 240.547C245.513 238.566 245.609 237.471 245.755 235.472Z" fill="black"/>
<path d="M255.995 230.246C259.36 230.292 262.633 230.196 266.025 230.317L266.045 235.465C263.278 235.426 258.783 235.252 256.173 235.484C255.85 234.458 255.98 231.51 255.995 230.246Z" fill="black"/>
<path d="M256.065 245.753C257.532 245.759 265.272 245.313 265.925 245.843L266.08 247.582C266.072 248.644 266.057 249.707 266.032 250.77L260.978 250.727C259.443 250.677 257.718 250.72 256.17 250.73C255.938 249.09 256.035 247.416 256.065 245.753Z" fill="#24264E"/>
<path d="M266.283 240.55C268.218 240.582 275.053 240.264 276.138 240.906L276.343 241.868C276.333 243.066 276.303 244.274 276.363 245.469L271.145 245.514C269.718 245.429 267.563 245.516 266.078 245.532L266.283 240.55Z" fill="#24264E"/>
<path d="M286.535 240.527C289.965 240.516 293.583 240.448 296.995 240.518L297.02 245.557C298.643 245.518 300.403 245.554 302.035 245.557L302.003 250.735L297.013 250.745C296.998 249.064 296.945 247.358 296.908 245.675L286.683 245.62L286.553 250.723L281.515 250.893C281.42 249.159 281.445 247.353 281.445 245.611C283.153 245.605 284.92 245.548 286.633 245.516C286.658 243.771 286.618 242.272 286.535 240.527Z" fill="#8676B9"/>
<path d="M291.91 281.5L297.005 281.522C296.975 283.17 296.902 284.862 297.04 286.5L296.977 291.53L296.812 291.547C295.37 291.837 293.275 291.767 291.737 291.775L291.705 296.747L291.485 296.783L291.482 291.685C289.867 291.727 288.182 291.713 286.56 291.725C286.525 290.033 286.64 288.26 286.72 286.56L291.742 286.51C291.737 284.8 291.822 283.205 291.91 281.5Z" fill="#24264E"/>
<path d="M291.91 281.5L297.005 281.522C296.975 283.17 296.902 284.862 297.04 286.5L296.977 291.53L296.812 291.547L296.827 286.485C295.132 286.51 293.437 286.518 291.742 286.51C291.737 284.8 291.822 283.205 291.91 281.5Z" fill="#24264E"/>
<path d="M291.742 286.51C293.437 286.518 295.132 286.51 296.827 286.485L296.812 291.547C295.212 291.405 293.247 291.545 291.612 291.615C291.587 289.74 291.597 288.375 291.742 286.51Z" fill="black"/>
<path d="M230.632 271.243C232.559 271.25 239.043 271.098 240.549 271.358C240.523 272.995 240.514 274.63 240.522 276.265L237.4 276.278C235.016 276.25 232.631 276.245 230.247 276.26L230.293 271.475L230.632 271.243Z" fill="#394D7B"/>
<path d="M235.424 255.927L245.532 255.987C245.571 257.645 245.578 259.352 245.74 261.002C242.584 261.012 239.311 261.082 236.169 260.9L235.682 260.685C235.356 259.93 235.449 257.012 235.424 255.927Z" fill="#24264E"/>
<path d="M260.977 250.728L266.032 250.77C266.227 252.41 266.147 254.31 266.127 255.988L260.975 256.005C260.89 254.283 260.95 252.46 260.977 250.728Z" fill="#8676B9"/>
<path d="M301.955 276.3C301.955 277.96 301.912 279.86 301.98 281.497C300.37 281.507 298.602 281.555 297.005 281.522L296.98 276.26L301.955 276.3Z" fill="#24264E"/>
<path d="M250.953 281.495L255.968 281.473C256.09 283.293 256.108 284.733 256.09 286.56L250.82 286.555C250.758 284.87 250.783 283.258 250.803 281.578L250.953 281.495Z" fill="#4481A9"/>
<path d="M250.772 255.992L255.972 255.965L256 261.017C254.2 261.032 252.357 261.002 250.552 260.992C250.75 259.605 250.74 257.452 250.772 255.992Z" fill="#8676B9"/>
<path d="M240.545 266.08C242.272 266.038 244 266.025 245.727 266.04C245.743 267.66 245.921 269.355 245.337 270.825C244.799 271.075 244.934 271.028 244.329 271.175L240.827 271.238C240.265 270.355 240.506 267.258 240.545 266.08Z" fill="#3B3B70"/>
<path d="M240.827 271.238L244.329 271.175C244.78 271.238 245.374 271.205 245.535 271.51C246.151 272.678 245.721 274.853 245.766 276.27L240.522 276.265C240.514 274.63 240.523 272.995 240.549 271.358L240.827 271.238Z" fill="#4481A9"/>
<path d="M271.145 245.737C272.82 245.72 274.868 245.753 276.505 245.637L276.515 250.742L271.27 250.7C271.208 249.046 271.168 247.391 271.145 245.737Z" fill="#8676B9"/>
<path d="M250.9 276.403C252.572 276.403 254.335 276.43 256 276.373C255.985 277.938 255.91 279.943 255.967 281.473L250.952 281.495C250.66 279.743 250.817 278.17 250.9 276.403Z" fill="#24264E"/>
<path d="M266.227 281.518C267.892 281.485 269.555 281.47 271.22 281.475L271.227 286.535L267.09 286.52L266.025 286.44C266 285.06 266.052 283.825 266.112 282.453C266.187 282.265 266.207 281.75 266.227 281.518Z" fill="#4481A9"/>
<path d="M281.558 276.43L286.49 276.28C286.51 277.93 286.488 279.855 286.578 281.483L281.508 281.51C281.493 279.805 281.458 278.133 281.558 276.43Z" fill="#493A6D"/>
<path d="M266.145 276.44L271.215 276.407L271.22 281.475C269.555 281.47 267.892 281.485 266.227 281.517C265.93 279.962 266.01 278.02 266.145 276.44Z" fill="#24264E"/>
<path d="M237.465 276.44L240.544 276.45C240.526 278.11 240.479 279.855 240.55 281.508L235.249 281.523C235.521 279.57 234.928 278.417 235.564 276.86C236.363 276.285 236.273 276.48 237.465 276.44Z" fill="#4481A9"/>
<path d="M230.032 266.347C231.861 266.285 233.69 266.24 235.52 266.21C235.483 267.807 235.435 269.385 235.471 270.982C234.443 270.99 231.477 270.937 230.632 271.242L230.293 271.475L230.059 271.105C230.401 269.872 230.199 267.625 230.032 266.347Z" fill="#4481A9"/>
<path d="M276.507 281.527L281.507 281.51L281.512 286.49L276.495 286.527C276.34 284.84 276.442 283.22 276.507 281.527Z" fill="#24264E"/>
<path d="M261.108 281.47C262.388 281.432 264.82 281.227 265.883 281.697L266.112 282.452C266.052 283.825 266 285.06 266.025 286.44C264.92 286.505 261.868 286.702 261.01 286.222C261.063 284.637 261.098 283.055 261.108 281.47Z" fill="#24264E"/>
<path d="M271.297 271.135C273.042 271.023 274.755 271.1 276.502 271.145L276.482 276.275L271.295 276.283C271.242 274.588 271.28 272.835 271.297 271.135Z" fill="#3B3B70"/>
<path d="M256.108 271.065C257.683 271.282 259.38 271.23 260.983 271.237L261.018 276.345L256.018 276.342C255.983 274.57 255.895 272.825 256.108 271.065Z" fill="#24264E"/>
<path d="M404.46 194.7C405.737 194.353 408.085 194.46 409.497 194.465L409.53 204.527C406.41 204.526 402.21 204.424 399.205 204.717L399.252 209.755L383.98 209.747C380.625 209.663 376.885 209.773 373.5 209.805L373.502 204.664C370.165 204.601 366.827 204.565 363.49 204.555L363.472 199.505C366.835 199.474 370.152 199.423 373.515 199.54C375.462 199.718 378.955 199.548 381.035 199.534L394.017 199.521L399.04 199.52L404.475 199.537L404.46 194.7Z" fill="#4C4C51"/>
<path d="M404.46 194.7C405.737 194.353 408.085 194.46 409.497 194.465L409.53 204.527C406.41 204.526 402.21 204.424 399.205 204.717L399.252 209.755L383.98 209.747C383.88 207.921 383.927 206.393 383.982 204.563C388.957 204.482 394.052 204.53 399.037 204.522C399.077 202.855 399.077 201.187 399.04 199.52L404.475 199.537L404.46 194.7Z" fill="black"/>
<path d="M286.547 225.221C289.907 225.197 293.537 225.108 296.88 225.171L296.912 230.232L301.927 230.265C301.94 231.94 301.92 233.746 301.997 235.407C303.71 235.382 305.422 235.406 307.132 235.48L307.052 240.556C303.7 240.525 300.347 240.512 296.995 240.518C293.582 240.447 289.965 240.515 286.535 240.527L276.427 240.524C276.127 238.863 276.307 237.116 276.442 235.442C279.69 235.499 283.28 235.401 286.472 235.667C286.555 232.186 286.687 228.698 286.547 225.221Z" fill="#24264E"/>
<path d="M378.772 189.466C383.587 189.227 389.13 189.319 394.01 189.296L393.987 189.547C394.002 190.996 394.07 192.905 393.997 194.32L393.842 194.462C393.972 196.269 394.012 197.709 394.017 199.521L381.035 199.534C378.955 199.548 375.462 199.718 373.515 199.54L373.512 194.498L378.835 194.497C378.772 192.878 378.79 191.1 378.772 189.466Z" fill="#5F616A"/>
<path d="M393.987 189.547C394.002 190.996 394.07 192.905 393.997 194.319L393.842 194.462C392.382 194.563 390.39 194.543 388.887 194.573C388.845 192.905 388.815 191.236 388.797 189.567L393.987 189.547Z" fill="#848B97"/>
<path d="M307.013 243.38C307.185 244.696 306.968 244.618 307.673 245.494C308.985 246.051 310.823 245.758 312.405 245.719C312.453 250.8 312.578 255.857 312.243 260.93C310.54 260.897 308.958 260.615 307.508 261.24C306.983 261.985 307.143 262.04 307.028 263.092C306.87 256.857 307.065 249.737 307.013 243.38Z" fill="#24264E"/>
<path d="M337.783 317.47C339.65 317.395 341.123 317.325 342.983 317.44L343.01 322.497L343.043 327.507C341.708 327.515 338.883 327.617 337.715 327.352L337.765 322.485L337.783 317.47Z" fill="#B2B4BF"/>
<path d="M337.765 322.485L343.01 322.497L343.043 327.508C341.708 327.515 338.883 327.618 337.715 327.353L337.765 322.485Z" fill="black"/>
<path d="M297.04 286.5L302.01 286.505L302.013 291.695C300.35 291.76 298.64 291.622 296.978 291.53L297.04 286.5Z" fill="#B2B4BF"/>
<path d="M337.847 184.276C339.547 184.256 341.275 184.216 342.97 184.261C342.962 187.465 342.857 191.289 342.985 194.443C341.322 194.354 339.642 194.422 337.975 194.456C337.902 191.063 337.86 187.669 337.847 184.276Z" fill="#2D2E34"/>
<path d="M342.985 194.443C346.39 194.508 349.795 194.531 353.2 194.512C353.1 196.243 353.01 197.791 353.03 199.524C349.76 199.522 346.265 199.459 343.01 199.54L342.985 194.443Z" fill="#2D2E34"/>
<path d="M348.15 184.262L353.292 184.25L353.322 189.265L348.215 189.24C348.07 187.571 348.127 185.936 348.15 184.262Z" fill="#FEFEFE"/>
<path d="M87.0043 71.4768C90.3058 71.5458 93.7623 71.5048 97.077 71.5158C97.2125 73.2501 97.2488 74.7458 97.2718 76.4876C98.844 76.4833 101.01 76.4151 102.505 76.6571L102.476 81.7968L107.512 81.937L107.487 86.9338L112.521 86.9995L112.511 97.3106L117.61 97.2293C117.556 98.8823 117.525 100.536 117.519 102.19L122.856 102.245L122.789 107.477L128.034 107.453L128.094 112.469L133.007 112.519C133.001 115.73 132.921 119.439 133.089 122.603L133.193 122.728C134.817 122.735 136.465 122.758 138.088 122.747L138.056 132.995C139.86 132.965 141.508 132.95 143.309 133.014L143.323 137.954L148.509 137.99L148.472 148.244L153.484 148.244C153.483 151.572 153.408 155.191 153.492 158.494L158.555 158.488C158.572 160.627 158.741 166.969 158.462 168.875L158.675 168.952C160.511 168.808 161.829 168.868 163.677 168.94C163.623 172.292 163.643 175.645 163.737 178.997L169.019 178.955L169.005 189.33C170.514 189.327 172.537 189.378 173.998 189.275L174.008 199.492C173.996 202.891 173.942 206.397 174.005 209.786L179.038 209.755L179.168 214.813L179.201 215.049C180.814 214.981 182.83 215.077 184.244 214.991C186.158 214.823 187.522 214.887 189.452 214.957C189.453 217.453 189.582 222.965 189.264 225.249C187.591 225.201 186.093 225.217 184.419 225.258L184.255 225.31C184.254 226.877 184.223 228.542 184.256 230.099L184.306 230.233L184.231 235.336L184.284 235.455C184.252 237.111 184.191 238.86 184.232 240.507L184.28 245.503C182.604 245.536 180.929 245.557 179.254 245.566L179.045 245.435L178.972 245.68C178.992 247.252 179.065 249.198 178.97 250.735L174.214 250.748C173.806 251.593 173.965 254.785 173.983 255.93C172.504 255.798 170.507 255.9 168.972 255.935C168.98 254.203 168.944 252.43 168.927 250.695L163.799 250.715C162.3 250.643 160.241 250.723 158.699 250.738C158.668 248.049 158.543 243.042 158.832 240.483L158.713 240.01L158.573 240.013C157.704 240.777 154.873 240.517 153.492 240.511L153.501 235.411C152.118 235.529 149.892 235.468 148.44 235.468C148.388 233.429 148.124 227.067 148.591 225.362L149.206 225.137L148.662 224.87C148.373 223.659 148.48 221.543 148.492 220.209L148.272 220.144C148.334 221.885 148.323 223.483 148.299 225.225C146.612 225.211 144.924 225.206 143.237 225.21C143.228 223.477 143.254 221.718 143.264 219.983L138.056 219.967C138.017 218.327 138.053 216.613 138.064 214.966C138.196 212.472 137.941 209.772 138.034 207.147L138.01 204.739L137.742 204.672C136.519 204.382 134.312 204.501 132.977 204.519C132.975 202.843 132.906 201.237 132.833 199.562L127.968 199.509L122.787 199.523C122.745 197.368 122.542 191.134 122.952 189.255L122.856 189.103C121.685 189.621 119.1 189.373 117.75 189.307C117.69 185.88 117.688 182.453 117.743 179.027C117.743 178.268 117.688 177.461 117.651 176.697C117.602 177.936 117.816 178.005 117.207 178.782C115.921 179.324 114.085 179.03 112.512 179.001L112.494 173.978C110.944 174.041 109.053 173.991 107.475 173.991L107.494 163.626L102.442 163.705C102.161 161.949 102.24 160.261 102.257 158.483L97.1773 158.546C96.7003 157.318 97.0223 149.86 97.0803 148.258L92.0363 148.255C91.9728 144.851 91.9695 141.447 92.0268 138.043C90.4638 138.139 88.5533 138.115 86.9608 138.136L86.984 128.174L86.8263 128.03L81.9783 127.989C81.7998 121.408 81.8545 114.084 81.932 107.488L86.9803 107.498L86.9515 102.261L81.909 102.245C81.9618 93.7168 81.7733 85.0433 81.9358 76.5601L86.95 76.5586C86.7988 74.8841 86.9295 73.1608 87.0043 71.4768Z" fill="#2D2E34"/>
<path d="M87.0043 71.4768C90.3058 71.5458 93.7623 71.5048 97.077 71.5158C96.9158 73.3181 96.978 74.6898 97.034 76.4961C93.47 76.4401 90.455 76.7758 87.0323 76.7843C87.0113 82.2236 86.716 92.0751 87.2375 97.2383C88.7813 97.2876 90.515 97.3983 92.0378 97.2721L92.0795 107.544L97.2315 107.51C97.2763 110.928 97.2848 114.346 97.2575 117.763C98.9598 117.758 100.751 117.723 102.445 117.761L102.5 127.951C104.583 127.811 105.495 127.751 107.546 127.962C107.452 129.562 107.386 131.405 107.227 132.979L112.487 132.995L112.536 143.164C114.286 143.141 116.036 143.089 117.785 143.008C117.465 146.504 117.716 149.777 117.709 153.264C115.97 153.379 114.283 153.525 112.54 153.464L112.384 153.487L107.498 153.524L107.362 158.529L107.494 163.626L102.442 163.705C102.161 161.949 102.24 160.261 102.257 158.483L97.1773 158.546C96.7003 157.318 97.0223 149.86 97.0803 148.258L92.0363 148.255C91.9728 144.851 91.9695 141.447 92.0268 138.043C90.4638 138.139 88.5533 138.115 86.9608 138.136L86.984 128.174L86.8263 128.03L81.9783 127.989C81.7998 121.408 81.8545 114.084 81.932 107.488L86.9803 107.498L86.9515 102.261L81.909 102.245C81.9618 93.7168 81.7733 85.0433 81.9358 76.5601L86.95 76.5586C86.7988 74.8841 86.9295 73.1608 87.0043 71.4768Z" fill="black"/>
<path d="M87.0364 112.489L91.8839 112.464L92.0242 122.739L97.0757 122.736L96.9949 128.048L102.265 128.031C102.259 131.356 102.272 134.681 102.304 138.006C103.937 138.016 106.143 138.091 107.722 137.968C107.5 139.743 107.227 146.651 107.467 148.296L112.542 148.255C112.523 149.976 112.48 151.748 112.539 153.464L112.384 153.487L107.498 153.524L107.362 158.529L107.494 163.626L102.441 163.705C102.16 161.948 102.239 160.261 102.257 158.483L97.1772 158.546C96.7002 157.318 97.0222 149.86 97.0802 148.258L92.0362 148.255C91.9727 144.851 91.9694 141.446 92.0267 138.042C90.4637 138.139 88.5532 138.115 86.9607 138.135L86.9839 128.173L86.8262 128.03C87.2594 125.462 86.9954 115.73 87.0364 112.489Z" fill="#2D2E34"/>
<path d="M86.9839 128.174C88.3857 127.899 90.5689 127.983 92.0622 127.987C92.1229 131.249 92.2812 134.728 92.2207 137.968L97.2252 137.999C97.0664 141.437 97.3012 144.967 97.0802 148.258L92.0362 148.255C91.9727 144.851 91.9694 141.447 92.0267 138.043C90.4637 138.139 88.5532 138.115 86.9607 138.136L86.9839 128.174Z" fill="black"/>
<path d="M102.536 148.292C104.067 148.437 106.163 148.073 107.205 148.67L107.469 149.665C107.419 151.049 107.352 152.133 107.498 153.524L107.362 158.529L107.494 163.626L102.441 163.705C102.16 161.948 102.239 160.261 102.257 158.483L102.332 158.236C102.701 157.131 102.55 149.889 102.536 148.292Z" fill="#24264E"/>
<path d="M102.521 158.492L107.362 158.528L107.494 163.626L102.441 163.705L102.521 158.492Z" fill="black"/>
<path d="M97.299 148.277L102.306 148.371L102.332 158.236L102.257 158.483L97.1772 158.546C97.3655 156.952 97.2322 150.515 97.299 148.277Z" fill="black"/>
<path d="M163.736 225.24C165.487 225.225 167.22 225.189 168.968 225.284L169.038 230.156L173.966 230.263L173.998 235.222C175.301 235.237 177.799 235.201 178.994 235.4C180.132 235.481 183.192 235.614 184.231 235.336L184.284 235.455C184.252 237.111 184.191 238.86 184.232 240.507L184.28 245.503C182.604 245.536 180.929 245.557 179.254 245.566L179.045 245.435L178.972 245.68C178.992 247.252 179.065 249.198 178.97 250.735L174.214 250.748C173.806 251.593 173.965 254.785 173.983 255.93C172.504 255.798 170.507 255.9 168.972 255.935C168.98 254.203 168.944 252.43 168.927 250.695L163.799 250.715C162.3 250.643 160.241 250.723 158.699 250.738C158.668 248.049 158.543 243.042 158.832 240.483L158.713 240.01L158.573 240.013C158.499 238.581 158.525 236.839 158.508 235.381C158.448 233.826 158.649 231.85 158.771 230.26C158.703 228.523 158.756 226.975 158.811 225.241L163.736 225.24Z" fill="#336288"/>
<path d="M173.998 235.222C175.301 235.237 177.799 235.201 178.994 235.4C180.132 235.481 183.192 235.614 184.231 235.336L184.284 235.455C184.252 237.111 184.191 238.86 184.232 240.507L184.28 245.503C182.604 245.536 180.929 245.557 179.254 245.566L179.045 245.435L179.033 243.318L178.888 240.498H174.164L173.998 235.222Z" fill="#3B3B70"/>
<path d="M179.19 240.534L184.232 240.507L184.279 245.502C182.604 245.536 180.929 245.557 179.253 245.566L179.045 245.435L179.033 243.317C179.127 242.485 179.147 241.392 179.19 240.534Z" fill="black"/>
<path d="M163.764 235.265C163.66 236.565 163.714 237.348 163.788 238.627C163.872 239.833 163.663 239.673 164.308 240.35C165.652 240.853 167.178 240.479 168.732 240.523C169.14 241.618 168.947 244.327 168.976 245.732C167.768 245.733 165.517 245.961 164.53 245.522C163.695 244.482 164.1 244.427 163.789 242.864L163.716 240.538L158.832 240.483L158.713 240.01C158.828 238.714 158.797 236.649 158.817 235.291L163.764 235.265Z" fill="#4481A9"/>
<path d="M158.831 240.483L163.716 240.538L163.789 242.864C163.738 245.48 163.741 248.097 163.799 250.715C162.299 250.643 160.241 250.723 158.699 250.738C158.667 248.049 158.543 243.042 158.831 240.483Z" fill="black"/>
<path d="M164.024 235.412C165.695 235.422 167.26 235.456 168.928 235.309C168.96 236.406 169.211 239.792 168.732 240.523C167.178 240.479 165.652 240.852 164.308 240.35C163.663 239.673 163.872 239.832 163.788 238.627L164.024 235.412Z" fill="black"/>
<path d="M173.983 245.617C175.645 245.672 177.309 245.693 178.972 245.68C178.992 247.251 179.065 249.197 178.97 250.735L174.214 250.747C173.859 249.931 173.978 246.68 173.983 245.617Z" fill="#4481A9"/>
<path d="M158.811 225.241L163.736 225.24L163.77 230.221L158.771 230.259C158.703 228.523 158.756 226.975 158.811 225.241Z" fill="black"/>
<path d="M143.28 148.279L148.404 148.285C148.353 151.681 148.333 155.077 148.343 158.473L153.492 158.494L158.555 158.488C158.572 160.627 158.74 166.969 158.461 168.875L158.675 168.952C160.51 168.808 161.829 168.868 163.677 168.94C163.623 172.292 163.643 175.645 163.737 178.997C163.676 182.417 163.675 185.838 163.734 189.258L158.563 189.311C158.689 187.747 158.681 185.639 158.719 184.03C157.021 184.188 155.066 184.158 153.338 184.172C153.488 180.948 153.429 177.26 153.451 174.012L148.462 173.99C148.469 170.501 148.223 166.939 148.439 163.474C146.742 163.675 144.945 163.701 143.229 163.762L143.208 158.542L138.045 158.527L138.061 153.491L143.319 153.517C143.277 151.798 143.291 150.005 143.28 148.279Z" fill="#394D7B"/>
<path d="M153.492 158.494L158.555 158.488C158.572 160.627 158.74 166.969 158.461 168.875C156.643 168.733 155.314 168.844 153.496 168.955L153.492 158.494Z" fill="black"/>
<path d="M158.675 168.952C160.511 168.808 161.829 168.868 163.677 168.94C163.623 172.292 163.643 175.645 163.737 178.997C162.131 179.037 160.33 178.992 158.707 178.988L158.675 168.952Z" fill="black"/>
<path d="M102.476 81.7968L107.512 81.937L107.487 86.9337L112.521 86.9995L112.511 97.3105L117.61 97.2292C117.556 98.8822 117.525 100.536 117.519 102.189L122.856 102.245L122.789 107.477L128.034 107.453L128.094 112.468L133.007 112.519C133.001 115.73 132.921 119.438 133.089 122.603C131.622 122.875 129.547 122.741 128.003 122.702C128.03 123.902 128.167 126.999 128.037 128.036C126.322 128.015 124.607 128.003 122.892 128.001C122.723 127.277 122.761 123.902 122.756 122.952C122.765 121.63 123.176 118.985 122.525 117.941C122.342 117.648 121.895 117.747 121.382 117.716C119.876 117.463 119.235 117.503 117.744 117.545C117.688 114.251 117.757 110.758 117.77 107.448L112.628 107.309C112.461 106.15 112.517 103.583 112.514 102.298L107.496 102.194L107.487 92.0342L102.364 91.9758C102.3 88.7575 102.269 84.979 102.476 81.7968Z" fill="black"/>
<path d="M122.959 112.489L128.025 112.497L127.949 117.747L122.98 117.641L122.959 112.489Z" fill="#2D2E34"/>
<path d="M174.005 209.786L179.038 209.755L179.168 214.813L179.201 215.049C180.814 214.981 182.83 215.077 184.244 214.991C186.158 214.823 187.522 214.887 189.452 214.957C189.453 217.453 189.582 222.965 189.264 225.249C187.591 225.201 186.093 225.217 184.419 225.258L184.255 225.31C184.254 226.877 184.223 228.542 184.256 230.099L184.306 230.233L184.231 235.336C183.192 235.614 180.132 235.481 178.994 235.4C177.799 235.201 175.301 235.237 173.998 235.222L173.966 230.263C173.86 228.289 173.846 226.82 173.9 224.842C173.906 223.214 173.892 221.586 173.859 219.959L173.987 219.854C174.045 218.219 174.018 216.636 173.998 215.001C173.93 213.389 173.994 211.427 174.005 209.786Z" fill="#336288"/>
<path d="M184.244 214.991C186.157 214.823 187.522 214.886 189.451 214.956C189.453 217.453 189.582 222.964 189.263 225.249C187.591 225.201 186.093 225.217 184.419 225.257C184.131 224.128 184.238 218.257 184.214 216.657L184.244 214.991Z" fill="black"/>
<path d="M174.005 209.786L179.038 209.755L179.167 214.813L179.201 215.049L179.015 215.023L178.98 219.957C177.223 219.969 175.738 219.961 173.986 219.854C174.044 218.219 174.018 216.636 173.998 215.001C173.93 213.389 173.993 211.427 174.005 209.786Z" fill="#4481A9"/>
<path d="M173.998 215.001C175.336 214.99 177.776 214.9 179.015 215.022L178.981 219.957C177.223 219.969 175.738 219.96 173.987 219.854C174.045 218.219 174.018 216.636 173.998 215.001Z" fill="#2D2E34"/>
<path d="M179.201 215.048C180.814 214.981 182.83 215.077 184.244 214.991L184.214 216.657C183.895 218.771 183.978 222.73 183.998 224.975C182.748 224.986 180.22 225.09 179.106 224.83L178.923 224.577C178.985 223.112 178.964 221.44 178.981 219.957L179.015 215.022L179.201 215.048Z" fill="#4481A9"/>
<path d="M184.256 230.099L184.306 230.233L184.231 235.336C183.192 235.614 180.132 235.481 178.994 235.4L179.048 230.303L179.165 230.272C180.874 230.267 182.56 230.305 184.256 230.099Z" fill="#336288"/>
<path d="M179.097 225.226C180.817 225.207 182.536 225.235 184.254 225.309C184.254 226.876 184.223 228.542 184.256 230.099C182.56 230.305 180.874 230.267 179.165 230.272C178.992 228.667 179.075 226.852 179.097 225.226Z" fill="black"/>
<path d="M173.966 230.263C175.253 230.256 177.876 230.176 179.048 230.303L178.994 235.4C177.799 235.201 175.301 235.237 173.998 235.222L173.966 230.263Z" fill="#26272E"/>
<path d="M178.981 219.957C178.964 221.44 178.985 223.112 178.923 224.577C177.991 225.339 175.566 224.731 173.9 224.842C173.906 223.214 173.892 221.586 173.859 219.958L173.987 219.854C175.738 219.96 177.223 219.969 178.981 219.957Z" fill="#394D7B"/>
<path d="M122.907 179.019C124.727 178.964 126.191 178.946 128.006 179.024C128.019 180.729 128.008 182.497 128.057 184.195L132.964 184.268L133.012 189.294C133.011 190.618 132.938 193.329 133.153 194.51L132.954 194.572C132.875 196.234 132.761 197.901 132.833 199.562L127.968 199.509L122.787 199.523C122.745 197.368 122.542 191.134 122.952 189.255L122.856 189.103C121.685 189.621 119.1 189.373 117.75 189.307C117.69 185.88 117.688 182.453 117.743 179.027C119.092 179.025 121.504 178.955 122.764 179.073L122.907 179.019Z" fill="#394D7B"/>
<path d="M122.952 189.255C124.628 189.296 126.315 189.355 127.99 189.331L128.01 194.515C129.263 194.499 131.811 194.402 132.954 194.572C132.875 196.234 132.761 197.901 132.833 199.562L127.968 199.509L122.787 199.523C122.745 197.368 122.542 191.134 122.952 189.255Z" fill="black"/>
<path d="M128.01 194.515C129.263 194.5 131.811 194.402 132.954 194.572C132.875 196.234 132.761 197.901 132.833 199.562L127.968 199.509C128.039 197.966 128.001 196.086 128.01 194.515Z" fill="#2D2E34"/>
<path d="M117.743 179.027C119.092 179.025 121.504 178.955 122.764 179.073C122.769 182.009 122.654 186.279 122.856 189.103C121.685 189.621 119.1 189.373 117.75 189.307C117.69 185.88 117.688 182.453 117.743 179.027Z" fill="black"/>
<path d="M92.0035 76.7352C93.6737 76.7282 95.3437 76.7342 97.0137 76.7532C97.0045 78.4312 96.9402 80.0637 97.1887 81.7227L102.476 81.7967C102.268 84.979 102.3 88.7575 102.363 91.9758L107.487 92.0342L107.495 102.194L112.514 102.298C112.517 103.583 112.461 106.15 112.628 107.309L112.531 107.436L107.367 107.469C107.333 105.701 107.332 103.933 107.364 102.165L102.371 102.223C102.31 98.8065 102.286 95.39 102.301 91.9735L97.2692 92.0142L97.1685 86.966L92.1305 86.9862C91.8605 83.856 91.9557 79.8805 92.0035 76.7352Z" fill="#493A6D"/>
<path d="M138.056 132.995C139.86 132.965 141.507 132.95 143.309 133.014L143.322 137.954L148.509 137.99L148.471 148.244L153.484 148.243C153.483 151.572 153.407 155.191 153.492 158.494L148.343 158.472C148.333 155.077 148.353 151.681 148.404 148.285L143.28 148.279C143.191 146.818 143.244 144.734 143.236 143.226L138.131 143.215C138.135 144.252 138.195 145.775 138.03 146.756C137.87 145.325 137.902 144.634 137.96 143.229C138.101 141.782 138.009 139.481 137.939 138.025L138.006 137.833C138.036 136.221 138.053 134.608 138.056 132.995Z" fill="black"/>
<path d="M138.006 137.833C139.395 138.125 141.757 138.073 143.255 138.09L143.236 143.226L138.131 143.215C138.135 144.252 138.195 145.775 138.03 146.756C137.87 145.325 137.902 144.634 137.96 143.229C138.101 141.782 138.009 139.481 137.939 138.025L138.006 137.833Z" fill="#394D7B"/>
<path d="M138.034 207.147C138.095 208.101 138.018 209.009 138.623 209.704C139.761 210.319 141.604 209.891 143.123 209.929L143.232 209.797L148.484 209.761C148.484 211.408 148.448 213.206 148.5 214.838C150.122 214.95 151.457 214.952 153.079 214.944C153.693 215.686 153.498 217.293 153.539 218.505L153.539 219.779C151.705 219.809 150.375 219.857 148.557 220.052L148.492 220.209L148.272 220.144C148.334 221.885 148.323 223.482 148.299 225.224C146.611 225.211 144.924 225.206 143.237 225.209C143.227 223.477 143.254 221.717 143.264 219.983L138.056 219.967C138.017 218.327 138.052 216.612 138.064 214.966C138.196 212.472 137.941 209.772 138.034 207.147Z" fill="#4481A9"/>
<path d="M138.034 207.147C138.095 208.101 138.018 209.009 138.623 209.704C139.761 210.319 141.604 209.891 143.123 209.929C143.159 211.548 143.083 213.345 143.211 214.923C143.233 216.588 143.281 218.324 143.264 219.983L138.056 219.967C138.017 218.327 138.052 216.612 138.064 214.966C138.196 212.472 137.941 209.772 138.034 207.147Z" fill="#2D2E34"/>
<path d="M138.064 214.966C139.547 214.967 141.76 215.023 143.211 214.923C143.233 216.588 143.281 218.324 143.264 219.983L138.056 219.967C138.017 218.327 138.052 216.612 138.064 214.966Z" fill="black"/>
<path d="M143.264 219.983C144.568 219.989 147.082 219.934 148.272 220.144C148.334 221.885 148.323 223.483 148.299 225.225C146.611 225.211 144.924 225.206 143.237 225.21C143.227 223.477 143.254 221.718 143.264 219.983Z" fill="black"/>
<path d="M143.232 209.797L148.484 209.761C148.485 211.408 148.448 213.206 148.5 214.838C146.931 214.787 144.75 214.678 143.211 214.923C143.083 213.345 143.159 211.548 143.123 209.929L143.232 209.797Z" fill="#394D7B"/>
<path d="M148.5 214.839C150.122 214.95 151.457 214.952 153.079 214.944C153.693 215.687 153.498 217.293 153.539 218.505L153.539 219.779C151.705 219.809 150.375 219.857 148.557 220.052C148.412 218.813 148.492 216.194 148.5 214.839Z" fill="#394D7B"/>
<path d="M133.008 178.993L138.09 178.952C138.081 182.504 138.076 185.784 138.269 189.335C139.986 189.402 141.703 189.455 143.421 189.494C143.392 191.053 143.566 198.686 143.221 199.517C141.58 199.433 139.777 199.271 138.155 199.447C138.116 197.782 138.086 196.118 138.068 194.453C136.429 194.426 134.79 194.445 133.152 194.51C132.938 193.329 133.011 190.618 133.012 189.294L132.964 184.268C132.969 182.545 132.943 180.704 133.008 178.993Z" fill="black"/>
<path d="M133.012 189.294C133.993 189.571 136.931 189.496 138.09 189.483L138.068 194.453C136.43 194.425 134.79 194.444 133.153 194.51C132.938 193.329 133.011 190.618 133.012 189.294Z" fill="#2D2E34"/>
<path d="M158.713 220.688C158.837 222.371 158.842 223.548 158.81 225.241C158.756 226.975 158.703 228.523 158.771 230.259C158.649 231.85 158.448 233.826 158.508 235.381C158.525 236.839 158.498 238.581 158.573 240.013C157.704 240.777 154.873 240.517 153.492 240.511L153.5 235.411C152.118 235.529 149.891 235.468 148.44 235.467C148.387 233.429 148.124 227.067 148.591 225.361L149.205 225.136C150.615 225.176 152.077 225.242 153.482 225.213L158.515 225.262C158.634 224.26 158.604 222.012 158.713 220.688Z" fill="#3B3B70"/>
<path d="M149.205 225.136C150.615 225.176 152.077 225.242 153.482 225.213L153.483 230.267L153.5 235.411C152.118 235.529 149.891 235.468 148.44 235.467C148.387 233.429 148.124 227.067 148.591 225.361L149.205 225.136Z" fill="black"/>
<path d="M153.5 235.411C155.312 235.332 156.695 235.324 158.508 235.381C158.525 236.839 158.498 238.581 158.573 240.013C157.704 240.777 154.873 240.517 153.492 240.511L153.5 235.411Z" fill="black"/>
<path d="M153.482 225.213L158.515 225.263L158.512 230.171L153.483 230.267L153.482 225.213Z" fill="#4481A9"/>
<path d="M107.498 153.524L112.384 153.487C112.648 156.3 112.58 160.659 112.601 163.565C114.313 163.548 116.034 163.479 117.73 163.692L117.743 168.741C116.006 168.828 114.267 168.89 112.529 168.929C112.47 170.611 112.458 172.295 112.494 173.978C110.944 174.041 109.053 173.991 107.475 173.991L107.494 163.626L107.362 158.529L107.498 153.524Z" fill="#394D7B"/>
<path d="M107.494 163.626C109.15 163.628 110.818 163.601 112.469 163.708L112.529 168.928C112.47 170.611 112.458 172.295 112.494 173.978C110.944 174.04 109.053 173.991 107.475 173.991L107.494 163.626Z" fill="black"/>
<path d="M163.737 178.996L169.019 178.955L169.005 189.33C170.514 189.327 172.536 189.378 173.998 189.275L174.008 199.492L168.995 199.493C168.795 196.345 169.21 192.594 168.883 189.704C168.264 189.306 168.011 189.454 167.137 189.438C165.862 189.173 165.024 189.241 163.734 189.258C163.675 185.838 163.676 182.417 163.737 178.996Z" fill="black"/>
<path d="M117.736 153.49C119.496 153.504 121.257 153.51 123.017 153.505L123.046 163.515L128.024 163.516L128.003 168.766C127.403 168.779 123.24 168.904 122.841 168.827C121.214 168.576 119.38 168.661 117.742 168.741L117.73 163.692L117.773 163.555C117.74 160.2 117.727 156.845 117.736 153.49Z" fill="black"/>
<path d="M117.773 163.555C119.456 163.654 121.212 163.583 122.902 163.552C122.73 165.373 122.8 167.003 122.841 168.827C121.214 168.576 119.38 168.661 117.742 168.741L117.73 163.692L117.773 163.555Z" fill="#2D2E34"/>
<path d="M163.746 189.433C164.779 189.492 166.082 189.445 167.137 189.438C168.011 189.454 168.265 189.306 168.883 189.704C169.21 192.594 168.795 196.345 168.995 199.493L174.008 199.492C173.996 202.891 173.942 206.397 174.005 209.786C172.467 209.716 170.544 209.82 168.975 209.865C168.815 206.395 168.832 202.965 168.827 199.492L163.698 199.591C163.674 196.205 163.691 192.819 163.746 189.433Z" fill="#336288"/>
<path d="M133.152 194.51C134.79 194.444 136.429 194.425 138.068 194.453C138.086 196.118 138.116 197.782 138.155 199.447L138.186 204.568C139.401 204.548 142.144 204.431 143.22 204.697C143.226 206.343 143.272 208.169 143.232 209.797L143.123 209.929C141.604 209.891 139.76 210.319 138.623 209.704C138.018 209.009 138.095 208.101 138.034 207.147L138.01 204.739L137.742 204.672C136.519 204.382 134.312 204.5 132.977 204.519C132.974 202.843 132.906 201.237 132.833 199.562C132.761 197.901 132.875 196.233 132.954 194.571L133.152 194.51Z" fill="#336288"/>
<path d="M153.7 215.004L158.771 214.996C158.763 216.547 158.803 218.467 158.652 219.97L158.714 220.688C158.604 222.012 158.635 224.26 158.515 225.262L153.483 225.213C152.078 225.242 150.615 225.176 149.206 225.136L148.662 224.869C148.373 223.658 148.48 221.543 148.492 220.209L148.557 220.052C150.375 219.857 151.705 219.809 153.539 219.779L153.539 218.505C153.621 217.297 153.684 216.223 153.7 215.004Z" fill="black"/>
<path d="M148.557 220.052C150.375 219.857 151.705 219.809 153.539 219.779L153.483 225.213C152.078 225.242 150.615 225.176 149.206 225.137L148.662 224.87C148.373 223.659 148.48 221.543 148.492 220.209L148.557 220.052Z" fill="#4481A9"/>
<path d="M127.892 138.014C129.566 137.999 131.291 138.039 132.969 138.059C134.571 138.073 136.358 138.128 137.939 138.025C138.009 139.481 138.101 141.782 137.961 143.229C137.902 144.634 137.87 145.325 138.03 146.756C138.074 147.729 138.232 147.359 137.83 148.072C136.311 148.641 134.706 148.42 133.022 148.392L132.961 143.184L127.769 143.205L127.892 138.014Z" fill="#394D7B"/>
<path d="M132.969 138.059C134.571 138.073 136.358 138.128 137.939 138.026C138.009 139.481 138.101 141.782 137.96 143.229C136.45 143.262 134.577 143.095 133.04 142.996L132.969 138.059Z" fill="#2D2E34"/>
<path d="M112.628 107.309L117.77 107.448C117.757 110.758 117.688 114.251 117.744 117.545L112.532 117.698C112.456 114.278 112.456 110.856 112.531 107.436L112.628 107.309Z" fill="#493A6D"/>
<path d="M133.193 122.728C134.817 122.735 136.465 122.758 138.088 122.747L138.056 132.995L132.997 132.992C132.887 131.263 132.822 124.145 133.193 122.728Z" fill="black"/>
<path d="M148.518 204.497C150.174 204.508 151.835 204.492 153.486 204.611C153.448 206.388 153.753 214.07 153.079 214.944C151.457 214.952 150.122 214.95 148.5 214.838C148.448 213.206 148.484 211.408 148.484 209.761C148.437 207.924 148.374 206.332 148.518 204.497Z" fill="black"/>
<path d="M117.754 168.996C119.421 168.937 121.089 168.933 122.757 168.983C122.769 171.087 122.68 177.269 122.907 179.019L122.764 179.073C121.504 178.955 119.092 179.025 117.743 179.027C117.743 178.268 117.688 177.461 117.651 176.697C117.563 176.043 117.575 174.75 117.559 174.041L117.754 168.996Z" fill="#394D7B"/>
<path d="M128.001 168.989L133.022 168.992C133 172.332 133.008 175.672 133.046 179.012C131.414 179.009 129.623 178.969 128.006 179.024C127.993 175.771 127.913 172.218 128.001 168.989Z" fill="black"/>
<path d="M121.382 117.717C121.895 117.748 122.342 117.648 122.525 117.942C123.176 118.985 122.764 121.63 122.756 122.953C121.352 123.063 119.083 123.299 117.723 123.173L117.755 117.742L121.382 117.717Z" fill="#394D7B"/>
<path d="M148.518 204.497C148.374 206.332 148.437 207.924 148.484 209.761L143.232 209.797C143.272 208.169 143.226 206.343 143.22 204.697L143.287 204.57C144.679 204.697 147.041 204.548 148.518 204.497Z" fill="#2D2E34"/>
<path d="M143.255 199.665C144.693 199.37 146.977 199.481 148.517 199.501L148.518 204.497C147.041 204.548 144.679 204.697 143.288 204.57C143.192 203.209 143.254 201.085 143.255 199.665Z" fill="black"/>
<path d="M158.652 219.97L163.75 220.014L163.736 225.24L158.811 225.241C158.842 223.548 158.837 222.371 158.714 220.688L158.652 219.97Z" fill="#394D7B"/>
<path d="M132.997 132.992L138.056 132.995C138.053 134.608 138.037 136.221 138.006 137.833L137.939 138.025C136.358 138.128 134.571 138.073 132.969 138.059C132.84 136.239 132.918 134.82 132.997 132.992Z" fill="#394D7B"/>
<path d="M97.264 76.721C99.026 76.736 100.745 76.7745 102.505 76.657L102.476 81.7967L97.1887 81.7227C97.3137 80.4667 97.258 78.0667 97.264 76.721Z" fill="black"/>
<path d="M122.892 128.001C124.607 128.003 126.322 128.015 128.037 128.036C127.927 129.165 127.988 131.742 127.981 132.98L122.821 133.038C122.752 131.44 122.777 129.651 122.767 128.036L122.892 128.001Z" fill="#394D7B"/>
<path d="M169.018 214.97L173.998 215.001C174.018 216.636 174.045 218.219 173.987 219.854L173.859 219.958C172.32 220.043 170.556 220.043 168.996 220.08L169.018 214.97Z" fill="#336288"/>
<path d="M112.494 173.978L117.559 174.041C117.575 174.75 117.563 176.044 117.65 176.697C117.602 177.936 117.816 178.005 117.207 178.782C115.92 179.324 114.085 179.03 112.512 179.001L112.494 173.978Z" fill="black"/>
<path d="M122.756 122.953C122.761 123.902 122.723 127.277 122.892 128.001L122.766 128.036C121.669 127.915 118.838 128.029 117.606 128.049C117.675 126.478 117.658 124.796 117.723 123.173C119.083 123.299 121.352 123.063 122.756 122.953Z" fill="#3B3B70"/>
<path d="M261.055 404.23L266.065 404.2C266.047 405.752 265.962 407.825 266.172 409.312C269.047 409.642 275.747 409.48 278.857 409.465C286.565 409.375 294.275 409.382 301.982 409.482L307.01 409.49L308.092 409.522L312.082 409.487L312.212 409.51C315.785 409.265 322.317 409.46 326.19 409.457L353.165 409.467C353.055 410.882 353.212 413.035 353.28 414.51L378.95 414.49L378.985 419.745L399.24 419.737C399.072 422.785 399.21 426.847 399.242 429.945L378.96 430.002C378.842 431.592 378.867 433.4 378.855 435.017L353.107 435.09C353.057 436.747 353.077 438.482 353.075 440.147C333.762 440.597 312.95 440.262 293.552 440.262L204.773 440.23C204.74 438.522 204.76 436.75 204.754 435.035C197.474 435.425 186.57 435.052 179.005 435.04L179.014 430.017H148.273L148.228 424.922L132.984 424.917C132.966 423.215 133.003 421.46 133.019 419.755L178.992 419.75C179.035 418.022 179.161 416.162 179.246 414.422C187.638 414.582 196.318 414.467 204.731 414.46C204.698 412.722 204.77 410.972 204.82 409.232C209.856 409.675 218.437 409.33 223.902 409.315L256.007 409.5C255.972 407.925 256.055 406.08 256.087 404.485C257.717 404.5 259.35 404.487 260.98 404.447L261.055 404.23Z" fill="#2D2E34"/>
<path d="M261.173 414.41C262.818 414.487 264.468 414.515 266.115 414.487C266.07 416.5 266.053 417.897 266.218 419.892C268.978 420.187 272.1 419.867 274.895 419.812C278.828 419.735 282.84 419.627 286.77 419.76L286.643 424.727C288.135 424.82 289.993 424.982 291.458 424.992C291.455 426.185 291.4 428.475 291.55 429.575L291.508 429.66C290.523 429.705 287.495 429.747 286.733 429.957L281.48 430.02L281.468 432.32L281.51 435.012L276.215 435.035C276.178 433.34 276.158 431.647 276.158 429.952L271.253 429.972L271.22 424.762C264.53 424.877 257.428 425.045 250.775 424.777C250.808 423.125 250.813 421.915 250.705 420.265V419.997C251.653 419.525 259.273 419.745 260.985 419.757C260.968 417.95 260.888 416.192 261.173 414.41Z" fill="#26272E"/>
<path d="M276.208 425.012L281.515 424.942C281.385 426.777 281.215 428.192 281.48 430.02L281.468 432.32C281.4 431.482 281.445 431.01 280.998 430.297C279.89 429.602 277.933 429.882 276.5 429.92C276.338 428.212 276.265 426.73 276.208 425.012Z" fill="#2D2E34"/>
<path d="M312.082 409.488L312.212 409.51C312.217 411.173 312.235 412.838 312.262 414.503C314.587 414.773 319.302 414.668 321.737 414.653L337.957 414.513L338.017 419.51C334.872 419.845 330.717 419.745 327.47 419.758L327.557 424.803L317.25 424.84C317.26 423.163 317.317 421.433 317.35 419.75C308.87 419.743 300.165 419.593 291.71 419.665C291.722 417.543 291.73 416.355 292.042 414.278C296.755 414.64 302.952 414.238 307.142 414.73C307.17 413.36 307.107 411.578 307.317 410.268C307.4 409.74 307.482 409.868 308.092 409.523L312.082 409.488Z" fill="#26272E"/>
<path d="M261.055 404.23L266.065 404.2C266.047 405.752 265.962 407.825 266.172 409.312C266.095 411.137 266.05 412.72 266.082 414.545L271.082 414.575C271.195 416.53 271.232 417.777 271.14 419.725C270.077 419.737 267.095 419.71 266.217 419.892C266.052 417.897 266.07 416.5 266.115 414.487C264.467 414.515 262.817 414.487 261.172 414.41L261.11 414.095C260.91 411.282 260.992 407.355 260.98 404.447L261.055 404.23Z" fill="#5F616A"/>
<path d="M256.087 404.485C257.717 404.5 259.35 404.488 260.98 404.448C260.993 407.355 260.91 411.283 261.11 414.095L260.83 414.485C259.342 414.695 257.593 414.505 256.068 414.415L256.008 409.5C255.973 407.925 256.055 406.08 256.087 404.485Z" fill="#26272E"/>
<path d="M281.48 430.02L286.733 429.958V435L281.51 435.013L281.468 432.32L281.48 430.02Z" fill="#5F616A"/>
<path d="M245.384 419.76C246.651 419.705 249.683 419.47 250.705 419.998V420.265C250.538 421.08 250.543 423.778 250.523 424.758C248.723 424.968 247.344 424.96 245.526 424.968L245.384 419.76Z" fill="#5F616A"/>
<path d="M291.733 424.928C293.573 424.883 295.138 424.838 296.973 424.953L296.778 430C295.505 430.003 292.483 430.16 291.508 429.66L291.55 429.575C291.76 428.08 291.718 426.448 291.733 424.928Z" fill="#5F616A"/>
<path d="M189.456 225.203L194.392 225.249C194.368 226.916 194.333 228.582 194.287 230.249L194.273 231.989C194.354 231.491 194.354 230.775 194.676 230.544C195.768 229.762 198.067 230.245 199.542 230.205C199.527 232.932 199.655 237.999 199.427 240.542L199.511 240.684C200.969 240.426 203.14 240.52 204.682 240.54C204.682 242.211 204.665 243.887 204.738 245.556L209.998 245.522C209.832 247.399 209.804 248.88 209.793 250.77C216.358 250.62 223.658 250.465 230.225 250.742L230.277 251.985C230.5 253.542 230.499 254.437 230.511 256.005C231.46 255.97 234.688 255.787 235.424 255.927C235.448 257.012 235.356 259.93 235.681 260.685L236.169 260.9L235.532 261.145L235.342 261.7C235.442 263.13 235.487 264.562 235.477 265.995C233.576 266.017 231.449 265.99 229.569 266.065L230.032 266.347C230.199 267.625 230.401 269.872 230.059 271.105L230.293 271.475L230.247 276.26C232.631 276.245 235.015 276.25 237.4 276.277L237.465 276.44C236.272 276.48 236.362 276.285 235.564 276.86C234.928 278.417 235.521 279.57 235.248 281.522L240.55 281.507C243.777 281.495 247.635 281.395 250.802 281.577C250.782 283.257 250.757 284.87 250.82 286.555L256.09 286.56L260.94 286.532L261.01 286.222C261.867 286.702 264.92 286.505 266.025 286.44L267.09 286.52L271.227 286.535L276.495 286.527L276.497 291.71C276.475 293.077 276.69 295.225 276.285 296.262C275.505 297 275.21 296.82 273.92 296.962L274.197 296.977C276.032 297.057 280.28 296.455 281.315 297.12L281.41 297.43C281.465 298.937 281.517 300.392 281.51 301.902C279.13 302.162 273.932 301.992 271.277 302L271.322 306.982L256.042 307.002L256.002 307.52L255.99 312.082C252.482 312.505 244.451 312.182 240.489 312.202L240.462 315.59L240.508 317.35C236.566 317.782 229.32 317.43 225.176 317.467C225.174 318.777 225.239 321.277 225.105 322.482C224.871 320.73 224.928 319.155 224.943 317.39C219.961 317.45 214.979 317.475 209.996 317.465C209.761 319.432 209.738 320.495 209.757 322.49C204.66 322.535 199.563 322.53 194.466 322.472C194.427 324.025 194.325 325.985 194.441 327.487L194.511 332.73C189.512 332.712 184.194 332.6 179.219 332.712C178.909 331.47 179.076 328.827 179.154 327.535L179.133 322.33C175.776 322.387 172.373 322.372 169.012 322.385L169.019 317.495L163.958 317.575L163.897 317.282C163.618 316.172 163.718 308.5 163.73 307.007L168.784 306.94C168.746 305.302 168.776 303.565 168.777 301.917C170.689 301.812 172.09 301.775 173.988 301.957C173.916 300.282 173.975 298.602 174.011 296.925C175.662 296.905 177.379 296.83 179.011 297.037L179.156 296.992C178.773 295.74 178.976 283.57 178.991 281.505L173.989 281.517C173.9 278.172 173.954 274.622 173.952 271.26C172.251 271.19 170.544 271.21 168.841 271.215C168.969 266.155 168.734 261.11 168.937 256.012L163.75 256.015L163.799 250.715L168.927 250.695C168.944 252.43 168.98 254.202 168.972 255.935C170.507 255.9 172.504 255.797 173.982 255.93C173.965 254.785 173.805 251.592 174.214 250.747L178.97 250.735C179.065 249.197 178.991 247.251 178.972 245.68L179.045 245.435L179.253 245.566C180.929 245.557 182.604 245.536 184.279 245.502L184.232 240.507C184.191 238.859 184.252 237.111 184.284 235.454L184.231 235.336L184.306 230.233C185.786 230.237 187.703 230.292 189.142 230.165L189.243 229.861L189.409 229.837L189.456 225.203Z" fill="#24264E"/>
<path d="M189.456 225.203L194.392 225.249C194.368 226.916 194.333 228.582 194.287 230.249L194.273 231.989C194.354 231.491 194.354 230.775 194.676 230.544C195.768 229.762 198.067 230.245 199.542 230.205C199.527 232.932 199.655 237.999 199.427 240.542L199.511 240.684C200.969 240.426 203.14 240.52 204.682 240.54C204.682 242.211 204.665 243.887 204.738 245.556L209.998 245.522C209.832 247.399 209.804 248.88 209.793 250.77C216.358 250.62 223.658 250.465 230.225 250.742L230.277 251.985C230.5 253.542 230.499 254.437 230.511 256.005C231.46 255.97 234.688 255.787 235.424 255.927C235.448 257.012 235.356 259.93 235.681 260.685L236.169 260.9L235.532 261.145L235.342 261.7C234.793 260.43 227.188 261.245 225.212 261.025C223.612 261.005 221.635 260.925 220.067 260.987L220.076 266.277C218.386 266.26 216.697 266.212 215.008 266.135C213.458 266.1 211.36 265.99 209.878 266.195C209.656 267.645 209.721 269.757 209.795 271.247L204.603 271.23L204.717 276.295C203.1 276.272 201.08 276.205 199.498 276.44C199.514 277.36 199.493 279.217 199.626 280.055C199.538 280.61 199.539 281.102 199.257 281.535L194.339 281.455L194.443 286.552L189.446 286.495C189.475 287.817 189.462 290.065 189.609 291.302C188.847 292.02 185.461 291.71 184.229 291.682C184.233 292.855 184.317 296.035 184.084 296.995C182.13 296.882 181.093 296.847 179.156 296.992C178.773 295.74 178.976 283.57 178.991 281.505L173.989 281.517C173.9 278.172 173.954 274.622 173.952 271.26C172.251 271.19 170.544 271.21 168.841 271.215C168.969 266.155 168.734 261.11 168.937 256.012L163.75 256.015L163.799 250.715L168.927 250.695C168.944 252.43 168.98 254.202 168.972 255.935C170.507 255.9 172.504 255.797 173.982 255.93C173.965 254.785 173.805 251.592 174.214 250.747L178.97 250.735C179.065 249.197 178.991 247.251 178.972 245.68L179.045 245.435L179.253 245.566C180.929 245.557 182.604 245.536 184.279 245.502L184.232 240.507C184.191 238.859 184.252 237.111 184.284 235.454L184.231 235.336L184.306 230.233C185.786 230.237 187.703 230.292 189.142 230.165L189.243 229.861L189.409 229.837L189.456 225.203Z" fill="black"/>
<path d="M189.456 225.203L194.392 225.249C194.368 226.916 194.333 228.582 194.287 230.249L194.273 231.989C194.354 231.491 194.354 230.775 194.676 230.544C195.768 229.762 198.067 230.245 199.542 230.205C199.527 232.932 199.655 237.999 199.427 240.542C197.932 240.532 195.66 240.59 194.257 240.334L194.215 240.489L189.473 240.526C189.017 242.232 189.574 244.464 189.003 245.578L188.835 245.622C187.298 245.33 185.833 245.441 184.279 245.502L184.232 240.507C184.191 238.859 184.252 237.111 184.284 235.454L184.231 235.336L184.306 230.233C185.786 230.237 187.703 230.292 189.142 230.165L189.243 229.861L189.409 229.837L189.456 225.203Z" fill="#336288"/>
<path d="M189.142 230.165C189.455 231.486 189.338 233.671 189.321 235.116C189.621 236.57 189.6 239.023 189.473 240.526C189.017 242.232 189.574 244.464 189.003 245.578L188.835 245.623C187.298 245.33 185.833 245.441 184.279 245.503L184.232 240.507C184.191 238.86 184.252 237.111 184.284 235.455L184.231 235.336L184.306 230.233C185.786 230.238 187.703 230.293 189.142 230.165Z" fill="#2D2E34"/>
<path d="M189.142 230.165C189.455 231.486 189.338 233.671 189.321 235.116L189.251 235.46C187.663 235.511 185.888 235.463 184.284 235.455L184.231 235.336L184.306 230.233C185.786 230.238 187.703 230.293 189.142 230.165Z" fill="#2D2E34"/>
<path d="M184.284 235.454C185.888 235.463 187.663 235.511 189.251 235.459L189.336 240.503L184.232 240.507C184.191 238.859 184.252 237.111 184.284 235.454Z" fill="black"/>
<path d="M194.273 231.989C194.355 231.491 194.354 230.775 194.676 230.544C195.768 229.762 198.067 230.245 199.542 230.205C199.527 232.932 199.655 237.999 199.428 240.542C197.932 240.532 195.66 240.59 194.257 240.334C194.305 237.572 194.398 234.743 194.273 231.989Z" fill="black"/>
<path d="M189.456 225.203L194.392 225.249C194.368 226.916 194.333 228.582 194.287 230.249C192.956 230.261 190.437 230.438 189.409 229.837L189.456 225.203Z" fill="black"/>
<path d="M184.279 245.503C185.833 245.441 187.298 245.33 188.835 245.623C187.305 245.688 185.774 245.715 184.242 245.705C184.246 247.046 184.19 249.32 184.382 250.553L184.275 250.805L184.297 256.04L179.215 256.01C179.203 257.475 179.259 259.618 178.99 260.978L173.978 260.995C173.957 259.323 173.98 257.605 173.982 255.93C173.965 254.785 173.805 251.593 174.214 250.748L178.97 250.735C179.065 249.198 178.991 247.252 178.972 245.68L179.045 245.435L179.253 245.566C180.929 245.557 182.604 245.536 184.279 245.503Z" fill="#3B3B70"/>
<path d="M179.235 250.808C181.1 250.725 182.41 250.725 184.275 250.805L184.297 256.04L179.215 256.01C179.184 254.308 179.223 252.518 179.235 250.808Z" fill="#336288"/>
<path d="M174.214 250.747L178.97 250.735L178.988 256L173.982 255.93C173.965 254.785 173.805 251.592 174.214 250.747Z" fill="black"/>
<path d="M184.279 245.503C185.833 245.441 187.298 245.33 188.835 245.623C187.305 245.688 185.774 245.715 184.242 245.705C184.246 247.046 184.19 249.32 184.382 250.553C182.446 250.468 181.196 250.5 179.255 250.613L179.253 245.566C180.929 245.557 182.604 245.536 184.279 245.503Z" fill="#26272E"/>
<path d="M189.468 256.052L194.401 256.01L194.463 260.98L189.323 260.953C189.301 264.335 189.231 267.823 189.259 271.198L184.258 271.08C184.247 269.822 184.3 267.167 184.184 266.025C184.063 264.71 184.205 262.433 184.254 261.043L189.472 261.015L189.468 256.052Z" fill="#2D2E34"/>
<path d="M230.277 251.985C230.5 253.542 230.499 254.437 230.511 256.005C231.46 255.97 234.688 255.787 235.424 255.927C235.448 257.012 235.356 259.93 235.681 260.685L236.169 260.9L235.532 261.145L235.342 261.7C234.793 260.43 227.188 261.245 225.212 261.025C225.173 259.382 225.194 257.66 225.189 256.01L230.241 256.007L230.277 251.985Z" fill="#493A6D"/>
<path d="M179.215 256.01L184.297 256.04L184.254 261.043C184.205 262.433 184.063 264.71 184.184 266.025L179.059 266.005L178.99 260.978C179.259 259.618 179.203 257.475 179.215 256.01Z" fill="#26272E"/>
<path d="M194.257 240.334C195.66 240.59 197.932 240.532 199.428 240.542L199.511 240.684C199.604 242.11 199.545 244.195 199.547 245.671L194.326 245.726C194.327 243.922 194.327 242.289 194.215 240.489L194.257 240.334Z" fill="#394D7B"/>
<path d="M214.89 261L220.067 260.988L220.076 266.278C218.386 266.26 216.697 266.213 215.008 266.135L214.89 261Z" fill="#4481A9"/>
<path d="M215.008 266.135C216.697 266.213 218.386 266.26 220.076 266.278L220.039 281.52L219.978 286.5L215.033 286.545L215.027 291.705L215.001 296.875L209.98 296.995C209.958 298.163 209.84 300.955 210.101 301.978L209.93 302.165L209.741 302.205L204.936 302.018C203.174 301.973 201.284 302.003 199.511 302C197.875 301.985 196.135 302.04 194.49 302.065C194.475 300.665 194.48 299.265 194.506 297.868L194.157 297.138C192.712 296.633 186.134 297.005 184.271 297.073L184.084 296.995C184.317 296.035 184.233 292.855 184.229 291.683C185.461 291.71 188.847 292.02 189.609 291.303C189.462 290.065 189.475 287.818 189.446 286.495L194.443 286.553L194.339 281.455L199.257 281.535C199.539 281.103 199.538 280.61 199.626 280.055C199.493 279.218 199.514 277.36 199.498 276.44C201.08 276.205 203.1 276.273 204.717 276.295L204.603 271.23L209.795 271.248C209.721 269.758 209.656 267.645 209.878 266.195C211.36 265.99 213.458 266.1 215.008 266.135Z" fill="#336288"/>
<path d="M189.609 291.302C190.374 291.982 197.55 291.473 199.588 291.7C197.896 291.728 196.205 291.745 194.513 291.753C194.409 293.323 194.173 295.435 194.563 296.935L194.506 297.867L194.157 297.138C192.712 296.633 186.134 297.005 184.271 297.073L184.084 296.995C184.317 296.035 184.233 292.855 184.229 291.682C185.461 291.71 188.847 292.02 189.609 291.302Z" fill="#394D7B"/>
<path d="M215.033 286.545L215.027 291.705C211.605 291.735 208.183 291.717 204.761 291.655C204.727 289.965 204.766 288.197 204.78 286.5C208.053 286.612 211.729 286.54 215.033 286.545Z" fill="#24264E"/>
<path d="M199.588 291.7L204.713 291.76L204.723 296.837C201.332 296.84 197.943 296.937 194.563 296.935C194.173 295.435 194.409 293.322 194.513 291.752C196.205 291.745 197.896 291.727 199.588 291.7Z" fill="#24264E"/>
<path d="M204.603 271.23L209.795 271.247C210.047 272.767 209.991 274.752 210 276.332C208.669 276.332 205.932 276.412 204.717 276.295L204.603 271.23Z" fill="#4481A9"/>
<path d="M194.339 281.455L199.258 281.535C199.69 282.457 199.612 285.507 199.68 286.72C198.616 286.715 195.262 286.785 194.444 286.552L194.339 281.455Z" fill="#4481A9"/>
<path d="M204.876 297.055C206.531 296.985 208.313 297.005 209.98 296.995C209.958 298.162 209.84 300.955 210.101 301.978L209.93 302.165L209.741 302.205L204.936 302.017C204.789 300.415 204.858 298.672 204.876 297.055Z" fill="#3B3B70"/>
<path d="M199.626 280.055C199.493 279.217 199.514 277.36 199.498 276.44C201.273 276.635 202.941 276.557 204.724 276.52L204.749 281.525C203.138 281.542 201.572 281.75 200.099 281.327C199.656 280.852 199.727 280.727 199.626 280.055Z" fill="#4481A9"/>
<path d="M220.039 281.52L219.978 286.5L215.033 286.545L215.065 281.5L220.039 281.52Z" fill="#24264E"/>
<path d="M209.878 266.195C211.614 266.383 213.189 266.35 214.931 266.348L214.981 271.185L210.066 271.27C210.019 270.41 209.966 266.643 209.878 266.195Z" fill="#4481A9"/>
<path d="M220.067 260.988C221.635 260.925 223.612 261.005 225.212 261.025C227.188 261.245 234.793 260.43 235.342 261.7C235.442 263.13 235.487 264.563 235.477 265.995C233.576 266.018 231.449 265.99 229.569 266.065L230.032 266.348C230.199 267.625 230.401 269.873 230.059 271.105L230.293 271.475L230.247 276.26C232.631 276.245 235.015 276.25 237.4 276.278L237.465 276.44C236.272 276.48 236.362 276.285 235.564 276.86C234.928 278.418 235.521 279.57 235.248 281.523L230.404 281.495C230.281 283.163 230.214 284.835 230.202 286.508L225.154 286.578L225.182 291.588C228.632 291.558 232.095 291.758 235.494 291.705L235.477 286.488C238.902 286.468 242.328 286.47 245.753 286.495C245.732 288.225 245.678 290.06 245.7 291.783L240.494 291.77L240.468 296.935C238.888 296.938 236.959 296.998 235.41 296.943C232.013 296.94 228.617 296.963 225.221 297.008C225.212 298.655 225.221 300.34 225.191 301.983L215.033 302.043L214.982 307.03L209.985 307.223L209.93 302.165L210.101 301.978C209.84 300.955 209.958 298.163 209.98 296.995L215.001 296.875L215.027 291.705L215.033 286.545L219.978 286.5L220.039 281.52L220.076 266.278L220.067 260.988Z" fill="#336288"/>
<path d="M220.067 260.988C221.635 260.925 223.612 261.005 225.213 261.025C227.189 261.245 234.793 260.43 235.342 261.7C235.442 263.13 235.487 264.563 235.477 265.995C233.576 266.018 231.449 265.99 229.569 266.065L230.032 266.348C230.2 267.625 230.402 269.873 230.059 271.105L230.293 271.475L230.247 276.26C228.707 276.248 226.468 276.138 225.021 276.475C226.764 276.518 228.508 276.503 230.25 276.43L230.296 281.353C227.442 281.618 223.027 281.498 220.039 281.52L220.076 266.278L220.067 260.988Z" fill="#24264E"/>
<path d="M230.059 271.105L230.293 271.475L230.247 276.26C228.707 276.247 226.468 276.137 225.02 276.475L225.012 272.76C225.223 271.642 225.01 271.802 225.687 271.182C227.042 270.73 228.587 270.995 230.059 271.105Z" fill="#4481A9"/>
<path d="M225.015 265.978L229.569 266.065L230.032 266.348C230.199 267.625 230.401 269.873 230.059 271.105C228.587 270.995 227.042 270.73 225.687 271.183C225.01 271.803 225.223 271.643 225.012 272.76L225.015 265.978Z" fill="#336288"/>
<path d="M215.027 291.705L225.042 291.688L225.068 296.84C221.645 296.977 218.462 296.98 215.034 296.96L215.006 301.945C213.39 301.955 211.71 301.94 210.101 301.978C209.84 300.955 209.958 298.162 209.98 296.995L215.001 296.875L215.027 291.705Z" fill="#24264E"/>
<path d="M179.156 296.993C181.093 296.848 182.13 296.883 184.084 296.995L184.271 297.073C186.134 297.005 192.712 296.633 194.157 297.138L194.506 297.868C194.48 299.265 194.475 300.665 194.49 302.065C196.135 302.04 197.875 301.985 199.511 302C201.284 302.003 203.174 301.973 204.936 302.018L209.741 302.205L209.78 307L204.748 307.003C204.744 308.155 204.798 311.043 204.642 312.035L204.812 312.28L204.746 317.353L194.592 317.455L194.476 317.258C194.398 315.648 194.441 313.838 194.447 312.21C189.506 312.263 183.901 311.923 179.07 312.213C179.084 313.89 179.117 315.58 179.058 317.253C175.712 317.368 172.366 317.448 169.019 317.495L163.958 317.575L163.897 317.283C163.618 316.173 163.718 308.5 163.73 307.008L168.784 306.94C168.746 305.303 168.776 303.565 168.777 301.918C170.689 301.813 172.09 301.775 173.988 301.958C173.916 300.283 173.975 298.603 174.011 296.925C175.662 296.905 177.379 296.83 179.011 297.038L179.156 296.993Z" fill="#394D7B"/>
<path d="M174.011 296.925C175.662 296.905 177.379 296.83 179.011 297.037C179.021 298.292 178.981 300.112 179.101 301.317L179.425 301.88C180.5 302.152 180.979 302.017 182.11 301.897C183.447 301.982 183.293 301.752 184.068 302.457C184.594 303.76 184.223 305.38 184.276 306.927L179.086 307.03C179.065 308.747 179.024 310.5 179.07 312.212C179.084 313.89 179.117 315.58 179.058 317.252C175.712 317.367 172.366 317.447 169.019 317.495L163.958 317.575L163.897 317.282C163.618 316.172 163.718 308.5 163.73 307.007L168.784 306.94C168.746 305.302 168.776 303.565 168.777 301.917C170.689 301.812 172.09 301.775 173.988 301.957C173.916 300.282 173.975 298.602 174.011 296.925Z" fill="#24264E"/>
<path d="M168.777 301.918C170.689 301.813 172.09 301.775 173.988 301.958L174.071 307.055L168.949 307.03C168.87 310.128 168.685 314.293 168.87 317.31C167.232 317.308 165.528 317.325 163.897 317.283C163.618 316.173 163.718 308.5 163.73 307.008L168.784 306.94C168.746 305.303 168.776 303.565 168.777 301.918Z" fill="black"/>
<path d="M169.043 312.1C172.117 312.33 175.973 312.242 179.07 312.212C179.084 313.89 179.118 315.58 179.058 317.252C175.713 317.367 172.366 317.447 169.019 317.495L169.043 312.1Z" fill="#493A6D"/>
<path d="M174.011 296.925C175.662 296.905 177.379 296.83 179.012 297.037C179.022 298.292 178.981 300.112 179.101 301.317L178.801 301.842C177.536 302.11 175.354 301.985 173.988 301.957C173.916 300.282 173.976 298.602 174.011 296.925Z" fill="black"/>
<path d="M204.936 302.017L209.741 302.205L209.78 307L204.748 307.002C204.745 308.155 204.798 311.042 204.642 312.035C201.264 312.05 197.885 312.037 194.507 312.002C194.472 310.412 194.507 308.707 194.51 307.11C196.169 307 198.037 306.98 199.715 306.922C199.481 305.322 199.526 303.627 199.511 302C201.284 302.002 203.174 301.972 204.936 302.017Z" fill="#24264E"/>
<path d="M184.271 297.073C186.134 297.005 192.712 296.633 194.157 297.138L194.506 297.868C194.48 299.265 194.475 300.665 194.49 302.065C191.217 301.838 187.784 301.978 184.306 301.728L184.271 297.073Z" fill="#24264E"/>
<path d="M225.221 297.008C228.617 296.963 232.014 296.94 235.41 296.943L235.539 302.06C233.787 302.035 232.035 302.028 230.283 302.043L230.284 306.995C228.541 307.02 226.741 307.023 225.005 307.095C225.13 308.995 225.182 310.37 225.141 312.27L220.107 312.218C220.093 313.78 220.026 315.69 220.088 317.223C216.758 317.22 213.3 317.265 209.981 317.208L210.017 312.033C208.338 312.075 206.453 312.073 204.812 312.28L204.642 312.035C204.798 311.043 204.745 308.155 204.748 307.003L209.78 307L209.741 302.205L209.93 302.165L209.985 307.223L214.983 307.03L215.033 302.043L225.191 301.983C225.221 300.34 225.212 298.655 225.221 297.008Z" fill="#3B3B70"/>
<path d="M261.01 286.223C261.867 286.703 264.92 286.505 266.025 286.44L267.09 286.52L271.227 286.535L276.495 286.528L276.497 291.71C276.475 293.078 276.69 295.225 276.285 296.263C275.505 297 275.21 296.82 273.92 296.963L271.277 296.973L266.167 296.978L266.045 296.828C266.047 295.135 266.082 293.408 265.96 291.723L261.015 291.775C261.005 290.028 260.98 288.28 260.94 286.533L261.01 286.223Z" fill="#336288"/>
<path d="M271.227 286.535L276.495 286.528L276.497 291.71C273.267 291.725 269.852 291.813 266.645 291.573C266.065 291.085 266.24 291.105 266.065 290.15C266.317 288.85 265.93 288.24 266.38 286.86L267.09 286.52L271.227 286.535Z" fill="#24264E"/>
<path d="M179.154 327.535C184.042 327.507 189.608 327.342 194.441 327.487L194.511 332.73C189.512 332.712 184.194 332.6 179.219 332.712C178.909 331.47 179.076 328.827 179.154 327.535Z" fill="black"/>
<path d="M256.005 301.993C260.537 302.02 266.972 301.718 271.277 302L271.322 306.983L256.042 307.003C255.91 305.558 255.987 303.488 256.005 301.993Z" fill="black"/>
<path d="M225.083 312.203C230.024 312.36 235.111 312.17 240.232 312.337C240.244 313.552 240.325 314.38 240.462 315.59L240.508 317.35C237.197 317.003 228.916 317.222 225.124 317.217C225.02 315.422 225.041 314.003 225.083 312.203Z" fill="black"/>
<path d="M245.529 306.972C247.176 306.97 254.555 306.842 255.72 307.19L256.003 307.52L255.99 312.082C253.038 311.727 243.93 311.948 240.49 311.953C240.528 310.228 240.527 308.74 240.469 307.015L245.529 306.972Z" fill="black"/>
<path d="M250.772 291.72C252.45 291.713 254.267 291.668 255.935 291.708L255.945 296.925L250.92 297.013C250.877 298.645 250.8 300.39 250.792 302.013C249.268 301.985 247.33 302.008 245.841 301.91L245.673 301.31C245.67 299.923 245.715 298.343 245.564 296.98C247.371 296.86 248.937 296.74 250.75 296.795L250.772 291.72Z" fill="#336288"/>
<path d="M184.231 317.418C187.647 317.46 191.063 317.408 194.476 317.258L194.592 317.455C194.429 318.923 194.463 320.93 194.447 322.448C191.073 322.465 187.616 322.555 184.259 322.28L184.231 317.418Z" fill="#493A6D"/>
<path d="M273.92 296.962L274.198 296.978C276.033 297.058 280.28 296.455 281.315 297.12L281.41 297.43C281.465 298.937 281.518 300.392 281.51 301.902C279.095 301.602 273.835 301.745 271.293 301.77L271.278 296.973L273.92 296.962Z" fill="black"/>
<path d="M245.673 301.31L245.841 301.91C245.592 303.583 245.583 305.278 245.529 306.973L240.469 307.015C240.375 305.945 240.47 303.2 240.476 302.005C241.726 302.015 244.292 302.125 245.392 301.833L245.673 301.31Z" fill="#394D7B"/>
<path d="M266.045 296.828L266.168 296.978C266.13 298.565 266.08 300.15 266.017 301.735L261.01 301.815L261.015 296.992C262.68 296.875 264.375 296.863 266.045 296.828Z" fill="#336288"/>
<path d="M296.812 291.548L296.977 291.53C298.64 291.623 300.35 291.76 302.012 291.695L302.002 301.99L307.02 301.978L307.042 312.255L312.255 312.253V317.418L317.487 317.423C319.097 317.433 320.705 317.43 322.315 317.5L322.325 322.44C327.42 322.458 332.685 322.538 337.765 322.485L337.715 327.353L337.565 327.483C337.835 329.015 337.817 330.94 337.857 332.53C336.142 332.64 334.425 332.718 332.707 332.76L332.825 337.765C329.4 337.82 325.875 337.925 322.462 337.833C322.447 336.835 322.475 333.323 322.32 332.53L322.3 332.775C322.202 334.048 322.37 336.848 322.025 337.663L321.79 337.838C322.7 338.74 322.472 341.535 322.485 342.955L312.245 343.018L312.287 348.02C310.537 348.028 303.247 348.143 301.96 347.85L301.815 347.95C302.032 349.558 301.982 351.623 301.99 353.278H296.98L297.027 358.263L291.8 358.26C291.797 359.92 291.75 361.858 291.82 363.493L286.505 363.495L286.52 368.435C286.517 370.713 286.43 373.595 286.535 375.823L286.537 378.783L281.27 378.733L281.257 373.71C279.615 373.74 277.92 373.713 276.275 373.708L276.232 368.735C275.11 368.723 274.317 368.658 273.197 368.538C272.235 368.543 272.05 368.68 271.295 368.25C270.792 364.753 271.242 357.255 271.175 353.31L266.065 353.275L266.242 358.328L260.997 358.235L261.07 363.503L255.982 363.508C255.972 365.068 255.91 366.985 255.98 368.513L250.762 368.5C250.832 369.983 251 372.088 250.845 373.493C247.425 373.515 239.317 373.34 236.144 373.705C235.803 373.645 236.003 373.71 235.589 373.403C235.34 371.923 235.44 368.098 235.443 366.41L235.473 353.378C233.836 353.428 231.903 353.353 230.242 353.33L230.242 348.018L225.014 347.978L224.994 342.99C221.66 342.93 218.2 342.98 214.855 342.985C214.77 341.3 214.875 339.538 214.936 337.848C213.222 337.795 211.495 337.848 209.78 337.88L209.815 332.673C208.138 332.608 206.606 332.633 204.928 332.665C204.894 330.965 204.914 329.203 204.91 327.498L194.441 327.488C194.325 325.985 194.427 324.025 194.466 322.473C199.563 322.53 204.66 322.535 209.757 322.49C209.738 320.495 209.761 319.433 209.996 317.465C214.979 317.475 219.961 317.45 224.943 317.39C224.928 319.155 224.871 320.73 225.105 322.483C225.239 321.278 225.174 318.778 225.176 317.468C229.32 317.43 236.566 317.783 240.508 317.35L240.462 315.59L240.489 312.203C244.451 312.183 252.482 312.505 255.99 312.083L256.002 307.52L256.042 307.003L271.322 306.983L271.277 302C273.932 301.993 279.13 302.163 281.51 301.903C281.517 300.393 281.465 298.938 281.41 297.43C281.892 296.575 287.755 296.908 289.085 296.815L289.36 296.795L291.485 296.783L291.705 296.748L291.737 291.775C293.275 291.768 295.37 291.838 296.812 291.548Z" fill="#B2B4BF"/>
<path d="M296.812 291.548L296.977 291.53C298.64 291.623 300.35 291.76 302.012 291.695L302.002 301.99L307.02 301.978L307.042 312.255L312.255 312.253V317.418L317.487 317.423C317.182 319.41 317.28 325.258 317.27 327.543L307.042 327.493L307.002 332.555L296.947 332.498L296.745 337.923L281.487 337.938L281.472 343H250.755L250.8 337.913L235.494 337.83C235.391 332.72 235.376 327.61 235.45 322.5L245.555 322.468C245.56 320.798 245.643 318.998 245.689 317.318C250.79 317.298 255.887 317.325 260.987 317.403C260.902 315.733 260.955 313.868 260.967 312.178C266.142 312.203 271.32 312.185 276.497 312.128L276.435 306.985L286.547 306.995C286.575 305.333 286.58 303.67 286.56 302.008C288.242 302.023 290.03 301.923 291.72 301.858L291.705 296.748L291.737 291.775C293.275 291.768 295.37 291.838 296.812 291.548Z" fill="#FEFEFE"/>
<path d="M296.813 291.548L296.978 291.53C296.973 293.335 296.978 295.14 296.993 296.948C295.31 296.908 293.355 296.91 291.705 296.748L291.738 291.775C293.275 291.768 295.37 291.838 296.813 291.548Z" fill="#B2B4BF"/>
<path d="M209.996 317.465C214.979 317.475 219.961 317.45 224.943 317.39C224.928 319.155 224.871 320.73 225.105 322.483L220.008 322.48C220.007 325.79 219.963 329.222 220.039 332.52L225.138 332.527C225.147 334.257 225.125 336.092 225.178 337.81L230.387 337.855L230.338 342.888C233.655 342.908 237.211 342.868 240.507 342.983L240.484 347.965L281.132 348C286.865 348.002 296.327 348.308 301.815 347.95C302.032 349.558 301.982 351.622 301.99 353.277H296.98L297.027 358.263L291.8 358.26C291.797 359.92 291.75 361.857 291.82 363.492L286.505 363.495L286.52 368.435C286.517 370.712 286.43 373.595 286.535 375.823L286.537 378.783L281.27 378.733L281.257 373.71C279.615 373.74 277.92 373.712 276.275 373.707L276.232 368.735C275.11 368.722 274.317 368.658 273.197 368.538C272.235 368.543 272.05 368.68 271.295 368.25C270.792 364.753 271.242 357.255 271.175 353.31L266.065 353.275L266.242 358.328L260.997 358.235L261.07 363.503L255.982 363.508C255.972 365.068 255.91 366.985 255.98 368.513L250.762 368.5C250.832 369.982 251 372.087 250.845 373.492C247.425 373.515 239.317 373.34 236.144 373.705C235.803 373.645 236.003 373.71 235.589 373.402C235.34 371.922 235.44 368.098 235.443 366.41L235.473 353.378C233.836 353.428 231.903 353.352 230.242 353.33L230.242 348.017L225.014 347.978L224.994 342.99C221.66 342.93 218.2 342.98 214.855 342.985C214.77 341.3 214.875 339.538 214.936 337.848C213.222 337.795 211.495 337.848 209.78 337.88L209.815 332.672C208.138 332.607 206.606 332.633 204.928 332.665C204.894 330.965 204.914 329.202 204.91 327.497L194.441 327.487C194.325 325.985 194.427 324.025 194.466 322.473C199.563 322.53 204.66 322.535 209.757 322.49C209.738 320.495 209.761 319.432 209.996 317.465Z" fill="black"/>
<path d="M286.52 368.435C286.517 370.713 286.43 373.595 286.535 375.823L286.538 378.783L281.27 378.733L281.258 373.71C279.615 373.74 277.92 373.713 276.275 373.708L276.233 368.735C275.11 368.723 274.318 368.658 273.198 368.538C276.398 368.283 282.98 368.463 286.52 368.435Z" fill="#26272E"/>
<path d="M312.245 337.938C315.502 337.848 318.535 337.783 321.79 337.838C322.7 338.74 322.472 341.535 322.485 342.955L312.245 343.017L312.287 348.02C310.537 348.027 303.247 348.143 301.96 347.85L302.005 342.987C305.407 342.907 308.81 342.875 312.212 342.885L312.245 337.938Z" fill="black"/>
<path d="M337.565 327.483C337.835 329.015 337.818 330.94 337.858 332.53C336.143 332.64 334.425 332.718 332.708 332.76L332.825 337.765C329.4 337.82 325.875 337.925 322.463 337.833C322.448 336.835 322.475 333.323 322.32 332.53C325.78 332.513 329.238 332.53 332.698 332.578L332.708 327.525C334.275 327.558 335.985 327.503 337.565 327.483Z" fill="black"/>
<path d="M158.624 317.235C160.091 317.265 162.44 317.182 163.756 317.525L163.958 317.575L169.019 317.495L169.012 322.385C172.374 322.373 175.776 322.387 179.133 322.33L179.155 327.535C179.077 328.828 178.91 331.47 179.22 332.712L179.235 334.082L179.231 337.78C174.075 337.855 168.917 337.87 163.761 337.823L163.777 342.9C156.907 342.977 150.036 343.015 143.165 343.01C143.061 339.515 143.171 336.012 143.245 332.517L148.512 332.6L148.526 327.527L153.513 327.513L153.502 322.467L158.69 322.42C158.435 320.72 158.545 318.947 158.624 317.235Z" fill="#493A6D"/>
<path d="M153.513 327.512C153.506 329.22 153.48 330.957 153.497 332.662C151.81 332.657 150.122 332.667 148.434 332.69L148.462 337.837C152.152 337.812 160.626 337.53 163.761 337.822L163.777 342.9C156.907 342.977 150.036 343.015 143.165 343.01C143.061 339.515 143.171 336.012 143.245 332.517L148.512 332.6L148.526 327.527L153.513 327.512Z" fill="black"/>
<path d="M168.96 332.535L169.314 332.562C171.861 332.755 177.16 332.132 178.836 332.875C179.156 333.415 179.121 333.452 179.235 334.082L179.231 337.78C174.075 337.855 168.917 337.87 163.76 337.822C163.705 336.117 163.737 334.255 163.732 332.535H168.96Z" fill="black"/>
<path d="M158.624 317.235C160.091 317.265 162.44 317.182 163.756 317.525L163.781 319.962C163.963 321.277 163.76 321.342 164.454 322.235C165.625 322.795 167.468 322.502 168.974 322.485L169.008 327.51C165.596 327.453 162.184 327.45 158.772 327.503C158.701 325.883 158.715 324.06 158.69 322.42C158.435 320.72 158.545 318.947 158.624 317.235Z" fill="#24264E"/>
<path d="M158.624 317.235C160.091 317.265 162.44 317.182 163.756 317.525L163.781 319.962C163.754 321.297 163.984 321.363 163.348 322.225C162.183 322.768 160.218 322.4 158.69 322.42C158.435 320.72 158.545 318.947 158.624 317.235Z" fill="black"/>
<path d="M174.07 327.502L179.154 327.535C179.076 328.827 178.909 331.47 179.219 332.712L179.235 334.082C179.121 333.452 179.156 333.415 178.836 332.875C177.16 332.132 171.861 332.755 169.314 332.562L168.959 332.535C170.276 332.387 172.553 332.445 173.952 332.44C173.912 330.772 173.998 329.167 174.07 327.502Z" fill="#24264E"/>
<path d="M153.502 322.468L158.69 322.42C158.715 324.06 158.701 325.883 158.771 327.503L153.513 327.513L153.502 322.468Z" fill="black"/>
<path d="M236.144 373.705C239.318 373.34 247.425 373.515 250.845 373.493L250.773 373.718C250.845 375.48 250.82 376.945 250.768 378.71C249.237 378.708 247.363 378.628 245.891 378.928L250.728 378.908C250.708 379.86 250.585 383.105 250.71 383.858C252.468 383.9 254.25 383.958 256.005 383.983C256.015 386.025 256.143 392.108 255.8 393.785C255.538 393.91 255.358 394.015 255.08 394.1C253.755 394.015 252.105 394.038 250.748 394.025L245.737 394.01L245.725 383.783C244.105 383.883 242.16 383.875 240.508 383.92C240.519 380.64 240.464 377.025 240.667 373.78C239.029 373.813 237.779 373.795 236.144 373.705Z" fill="#26272E"/>
<path d="M250.71 383.857C252.467 383.9 254.25 383.957 256.005 383.982C256.015 386.025 256.142 392.107 255.8 393.785C255.537 393.91 255.357 394.015 255.08 394.1C253.755 394.015 252.105 394.037 250.747 394.025C250.7 390.655 250.72 387.232 250.71 383.857Z" fill="#5F616A"/>
<path d="M245.599 373.785L250.772 373.718C250.845 375.48 250.82 376.945 250.767 378.71C249.237 378.708 247.362 378.628 245.891 378.928L245.651 378.688C245.454 377.223 245.564 375.308 245.599 373.785Z" fill="#5F616A"/>
<path d="M394.01 189.296L404.505 189.241C404.49 190.728 404.54 193.144 404.418 194.553L404.46 194.7L404.475 199.537L399.04 199.52L394.018 199.521C394.013 197.708 393.973 196.268 393.843 194.462L393.998 194.319C394.07 192.905 394.003 190.996 393.988 189.547L394.01 189.296Z" fill="black"/>
<path d="M393.998 194.319C396.44 194.732 401.695 194.39 404.418 194.553L404.46 194.7L404.475 199.537L399.04 199.52L394.018 199.521C394.013 197.708 393.973 196.268 393.843 194.462L393.998 194.319Z" fill="#848B97"/>
<path d="M174.008 199.492L179.03 199.486C179.049 201.229 179.043 202.787 179.233 204.523L184.234 204.526L184.26 214.916C182.47 214.819 180.961 214.713 179.167 214.813L179.038 209.755L174.005 209.786C173.942 206.397 173.995 202.891 174.008 199.492Z" fill="black"/>
<path d="M250.748 394.025C252.105 394.037 253.755 394.015 255.08 394.1L256.028 394.25L260.978 394.01C260.978 397.418 261.003 400.823 261.055 404.23C259.32 404.313 257.715 404.255 255.98 404.207L250.695 404.307L250.748 394.025Z" fill="#26272E"/>
<path d="M256.027 394.25L260.977 394.01C260.977 397.418 261.002 400.823 261.055 404.23C259.32 404.313 257.715 404.255 255.98 404.207L256.027 394.25Z" fill="#5F616A"/>
<path d="M404.247 419.74C407.635 419.817 411.15 419.787 414.547 419.805L414.5 429.957C411.097 429.97 407.62 430.05 404.232 429.788C404.295 426.438 404.3 423.09 404.247 419.74Z" fill="#2D2E34"/>
<path d="M286.538 378.782C288.275 378.752 290.015 378.755 291.755 378.79C291.775 379.915 291.768 383.08 291.92 384.03L296.967 384.01C296.905 384.99 296.843 388.3 296.573 388.96C295.04 389 293.333 388.96 291.785 388.957C290.075 389.015 288.215 388.99 286.49 389.002C286.577 385.67 286.53 382.13 286.538 378.782Z" fill="#26272E"/>
<path d="M291.92 384.03L296.967 384.01C296.905 384.99 296.842 388.3 296.572 388.96C295.04 389 293.332 388.96 291.785 388.957L291.92 384.03Z" fill="#5F616A"/>
<path d="M276.497 291.71C277.987 291.692 280.052 291.605 281.497 291.677C283.185 291.715 284.872 291.73 286.56 291.725C288.182 291.713 289.867 291.728 291.482 291.685L291.485 296.783L289.36 296.795L289.085 296.815C287.755 296.908 281.892 296.575 281.41 297.43L281.315 297.12C280.28 296.455 276.032 297.058 274.197 296.978L273.92 296.962C275.21 296.82 275.505 297 276.285 296.263C276.69 295.225 276.475 293.077 276.497 291.71Z" fill="black"/>
<path d="M276.497 291.71C277.987 291.692 280.052 291.605 281.497 291.677L281.45 296.705C283.855 296.692 287.022 296.588 289.36 296.795L289.085 296.815C287.755 296.908 281.892 296.575 281.41 297.43L281.315 297.12C280.28 296.455 276.032 297.058 274.197 296.978L273.92 296.962C275.21 296.82 275.505 297 276.285 296.263C276.69 295.225 276.475 293.077 276.497 291.71Z" fill="#24264E"/>
<path d="M302.003 400.013C303.1 399.035 305.463 399.245 307.015 399.233C307.015 400.85 306.98 402.648 307.043 404.25C308.998 404.153 310.348 404.035 312.283 404.28C312.293 405.478 312.41 408.505 312.083 409.488L308.093 409.523L307.01 409.49L301.983 409.483C301.99 408.018 301.873 405.555 302.203 404.245L302.095 404.1C302.01 402.87 302.025 401.275 302.003 400.013Z" fill="#5F616A"/>
<path d="M302.203 404.245C303.798 404.265 305.415 404.3 307.008 404.298L307.01 409.49L301.983 409.483C301.99 408.018 301.873 405.555 302.203 404.245Z" fill="#26272E"/>
<path d="M133.028 204.7C134.599 204.683 136.171 204.673 137.742 204.672L138.01 204.739L138.034 207.147C137.941 209.772 138.196 212.472 138.064 214.966C136.477 215.034 134.613 214.999 133.003 215.009C132.951 211.573 132.959 208.136 133.028 204.7Z" fill="black"/>
<path d="M296.998 394.047L298.658 394.035C299.968 394.18 300.7 394.245 302.02 394.245L302.003 400.012C302.025 401.275 302.01 402.87 302.095 404.1C300.695 404.547 298.363 404.337 296.83 404.285C297.005 400.885 296.795 397.522 296.998 394.047Z" fill="#26272E"/>
<path d="M286.535 375.822C286.812 374.092 286.705 373.415 288.92 373.517C289.972 373.565 290.872 373.66 291.935 373.597C291.85 375.33 291.74 377.055 291.755 378.79C290.015 378.755 288.275 378.752 286.537 378.782L286.535 375.822Z" fill="#5F616A"/>
<path d="M291.785 388.958C293.333 388.96 295.04 389 296.573 388.96C296.953 389.645 296.763 393.018 296.745 394.038C295.168 394.09 293.375 394.015 291.78 393.983C291.685 392.17 291.72 390.778 291.785 388.958Z" fill="#26272E"/>
<path d="M184.419 225.258C186.093 225.217 187.591 225.201 189.264 225.249L189.244 229.862L189.142 230.165C187.704 230.293 185.787 230.238 184.306 230.233L184.256 230.099C184.223 228.542 184.254 226.877 184.255 225.31L184.419 225.258Z" fill="#4481A9"/>
<path d="M297.053 389.058C298.908 388.943 300.223 388.873 302.073 388.948C302.048 390.573 301.983 392.373 302.035 393.985C301.013 393.99 299.648 393.955 298.658 394.035L296.998 394.048C297.008 392.385 297.025 390.72 297.053 389.058Z" fill="#5F616A"/>
<path d="M127.968 199.509L132.833 199.562C132.906 201.237 132.974 202.843 132.977 204.519L128.015 204.531C127.95 202.811 127.95 201.231 127.968 199.509Z" fill="black"/>
</g>
<defs>
<clipPath id="clip0_2159_60">
<rect width="512" height="512" fill="white"/>
</clipPath>
</defs>
</svg>
