<svg width="512" height="512" viewBox="0 0 512 512" fill="none" xmlns="http://www.w3.org/2000/svg">
<g clip-path="url(#clip0_2159_3)">
<path d="M0 0H512V512H0V0Z" fill="#B5B7BC"/>
<path d="M341.08 143.244C351.74 143.195 362.592 143.132 373.257 143.249L373.272 153.489L394.495 153.514L394.505 163.577L405.392 163.712C405.357 165.392 405.342 167.073 405.35 168.754C408.86 168.765 412.48 168.73 415.977 168.807L415.942 173.998L426.517 173.979L426.52 184.141C416.137 184.132 404.755 184.412 394.507 184.191L394.502 194.494L383.977 194.502C383.982 218.219 383.77 242.319 384.045 266.008L373.212 266.003C373.227 264.183 373.382 257.545 373.077 255.998C372.76 259.918 373.057 264.355 373.082 268.298C373.12 274.33 373.27 280.515 373.052 286.535L362.497 286.49L362.502 297.003H351.975L351.997 307.01C345.112 307.008 337.29 306.813 330.482 307.02L277.272 306.99L277.25 296.943C273.812 296.75 269.995 296.83 266.52 296.84L266.53 286.543C263.067 286.478 259.417 286.543 255.94 286.55C256.09 283.448 256.002 279.59 256.012 276.43L257.175 276.365C260.287 276.315 263.402 276.228 266.515 276.1L266.505 266.128L266.61 265.948C266.72 263 266.55 258.945 266.47 255.945C269.952 256.07 273.522 256.008 277.015 255.99C277.092 254.465 277.15 252.943 277.192 251.418C277.25 249.956 276.945 247.047 277.415 245.843L278.17 245.702L278.16 245.554C274.492 245.435 270.28 245.525 266.567 245.513C266.487 242.2 266.485 238.886 266.56 235.574L266.802 235.504C266.292 234.485 266.567 226.692 266.585 225.15C269.945 225.177 273.862 225.055 277.13 225.172L277.23 214.851C280.805 214.848 284.382 214.826 287.957 214.785C287.96 211.431 287.912 207.89 288.022 204.556L298.502 204.553C298.52 201.22 298.51 197.827 298.575 194.499L309.065 194.509C309.085 188.309 309.367 180.043 309.097 174.016L319.98 174.011C319.96 170.602 319.877 166.946 319.99 163.562L330.527 163.668C330.525 160.311 330.477 156.845 330.54 153.497L341.057 153.535C341.087 150.439 341.242 146.25 341.08 143.244Z" fill="black"/>
<path d="M351.972 224.952C354.335 225.072 359.427 224.933 361.29 225.199L362.255 225.252C362.73 226.134 362.497 252.87 362.497 255.968L373.077 255.998C372.76 259.918 373.057 264.355 373.082 268.298C373.12 274.33 373.27 280.515 373.052 286.535L362.497 286.49L362.502 297.003H351.975L351.997 307.01C345.112 307.008 337.29 306.813 330.482 307.02L277.272 306.99L277.25 296.943C273.812 296.75 269.995 296.83 266.52 296.84L266.53 286.543C263.067 286.478 259.417 286.543 255.94 286.55C256.09 283.448 256.002 279.59 256.012 276.43L257.175 276.365C260.287 276.315 263.402 276.228 266.515 276.1L266.505 266.128L266.61 265.948C266.72 263 266.55 258.945 266.47 255.945C269.952 256.07 273.522 256.008 277.015 255.99C277.092 254.465 277.15 252.943 277.192 251.418C277.25 249.956 276.945 247.047 277.415 245.843L278.17 245.702L278.16 245.554C282.307 245.539 286.937 245.421 291.047 245.549C292.822 245.873 306.72 245.735 309.272 245.677C309.27 248.449 309.157 252.655 309.377 255.303C309.875 256.485 318.345 255.838 319.87 255.76C320.115 253.145 319.987 248.287 319.965 245.527C320.117 242.48 320.01 238.581 320.007 235.469L341.075 235.463L341.142 234.794C341.212 231.995 341.347 227.73 341.09 225.016L351.67 224.99L351.972 224.952Z" fill="#FEFEFE"/>
<path d="M278.16 245.554C282.307 245.538 286.937 245.42 291.047 245.549C292.822 245.872 306.72 245.735 309.272 245.677C309.27 248.448 309.157 252.655 309.377 255.302L309.132 255.982C309.375 258.537 309.175 263.197 309.215 266.02C309.285 268.845 309.17 273.765 309.51 276.335C306.012 276.495 302.242 276.56 298.75 276.322L298.48 286.32C296.585 286.312 292.512 286.22 290.745 286.462L288.047 286.51L275.675 286.492C272.762 286.492 269.41 286.425 266.53 286.542C263.067 286.477 259.417 286.542 255.94 286.55C256.09 283.447 256.002 279.59 256.012 276.43L257.175 276.365C260.287 276.315 263.402 276.227 266.515 276.1L266.505 266.127L266.61 265.947C266.72 263 266.55 258.945 266.47 255.945C269.952 256.07 273.522 256.007 277.015 255.99C277.092 254.465 277.15 252.942 277.192 251.417C277.25 249.956 276.945 247.047 277.415 245.842L278.17 245.702L278.16 245.554Z" fill="#2E3E89"/>
<path d="M298.618 264.992L298.908 265.81C300.4 266.337 307.01 265.952 309.215 266.02C309.285 268.845 309.17 273.765 309.51 276.335C306.013 276.495 302.243 276.56 298.75 276.322L298.48 286.32C296.585 286.312 292.513 286.22 290.745 286.462L288.048 286.51L275.675 286.492C276.225 286.39 276.258 286.362 276.77 286.132C277.523 284.592 277.195 278.635 277.193 276.495L281.62 276.467C283.158 276.24 286.258 276.272 288.023 276.185C287.958 272.89 288.008 269.46 288.013 266.152C291.038 266.297 295.338 266.09 298.428 266.02L298.618 264.992Z" fill="#403385"/>
<path d="M281.62 276.468C283.725 276.543 285.833 276.555 287.938 276.5C287.918 278.83 287.753 284.498 288.048 286.51L275.675 286.493C276.225 286.39 276.258 286.363 276.77 286.133C277.523 284.593 277.195 278.635 277.193 276.495L281.62 276.468Z" fill="#70429A"/>
<path d="M298.428 266.02C298.62 269.39 298.378 272.98 298.655 276.245C296.385 276.275 289.98 276.48 288.023 276.185C287.958 272.89 288.008 269.46 288.013 266.153C291.038 266.298 295.338 266.09 298.428 266.02Z" fill="#70429A"/>
<path d="M278.17 245.702C281.11 245.896 284.885 245.8 287.883 245.735C287.808 249.087 287.675 252.628 287.945 255.963C284.368 255.985 280.733 255.82 277.268 255.848L277.193 251.418C277.25 249.956 276.945 247.047 277.415 245.843L278.17 245.702Z" fill="#403385"/>
<path d="M298.73 255.953C301.885 256.105 305.91 255.99 309.132 255.983C309.375 258.538 309.175 263.198 309.215 266.02C307.01 265.953 300.4 266.338 298.907 265.81L298.617 264.993C298.477 262.705 298.705 258.413 298.73 255.953Z" fill="#70429A"/>
<path d="M266.47 255.945C269.952 256.07 273.522 256.008 277.015 255.99C277.022 258.968 276.932 263.13 277.212 265.995C273.71 266.003 270.102 266.05 266.61 265.948C266.72 263 266.55 258.945 266.47 255.945Z" fill="#403385"/>
<path d="M351.973 224.952C354.335 225.072 359.428 224.933 361.29 225.199C358.158 225.309 355.113 225.263 351.98 225.231L351.987 255.925L341.242 255.965L341.258 266.005C337.693 266.003 334.055 266.043 330.497 265.998L330.52 276.385C327.042 276.348 323.435 276.305 319.962 276.46L320 286.52C311.305 286.513 299.232 286.848 290.745 286.463C292.512 286.22 296.585 286.313 298.48 286.32L298.75 276.323C302.243 276.56 306.013 276.495 309.51 276.335C309.17 273.765 309.285 268.845 309.215 266.02C309.175 263.198 309.375 258.538 309.133 255.983L309.378 255.303C309.875 256.485 318.345 255.838 319.87 255.76C320.115 253.145 319.987 248.287 319.965 245.527C320.117 242.48 320.01 238.581 320.008 235.469L341.075 235.463L341.142 234.794C341.212 231.995 341.347 227.73 341.09 225.016L351.67 224.99L351.973 224.952Z" fill="#70429A"/>
<path d="M320.008 235.469L341.075 235.463C341.378 237.679 341.19 243.115 341.138 245.527C337.7 245.528 334.105 245.579 330.68 245.495C330.533 248.963 330.493 252.435 330.56 255.905L320.008 255.985L320.013 266.043C316.613 266.078 312.555 266.213 309.215 266.02C309.175 263.198 309.375 258.538 309.133 255.983L309.378 255.303C309.875 256.485 318.345 255.838 319.87 255.76C320.115 253.145 319.988 248.287 319.965 245.527C320.118 242.48 320.01 238.581 320.008 235.469Z" fill="#403385"/>
<path d="M341.09 225.016L351.67 224.99C351.787 228.274 351.72 231.831 351.71 235.141C349.94 235.343 342.672 235.895 341.322 235.247L341.142 234.794C341.212 231.995 341.347 227.73 341.09 225.016Z" fill="#403385"/>
<path d="M309.263 214.98C323.503 214.856 337.745 214.857 351.985 214.982L351.973 224.952L351.67 224.99L341.09 225.016C341.348 227.73 341.213 231.995 341.143 234.794L341.075 235.463L320.008 235.469C320.01 238.581 320.118 242.48 319.965 245.527C319.988 248.287 320.115 253.145 319.87 255.76C318.345 255.838 309.875 256.485 309.378 255.303C309.158 252.655 309.27 248.449 309.273 245.677C306.72 245.735 292.823 245.873 291.048 245.549C286.938 245.421 282.308 245.539 278.16 245.554C274.493 245.435 270.28 245.525 266.568 245.513C266.488 242.2 266.485 238.886 266.56 235.574L266.803 235.504C273.083 235.201 281.473 235.472 287.985 235.448L287.935 225.242L309.253 225.128L309.263 214.98Z" fill="#FEFEFE"/>
<path d="M291.047 245.549C300.462 245.323 310.492 245.539 319.965 245.527C319.987 248.287 320.115 253.145 319.87 255.76C318.345 255.838 309.875 256.485 309.378 255.303C309.158 252.655 309.27 248.449 309.272 245.677C306.72 245.735 292.822 245.873 291.047 245.549Z" fill="#70429A"/>
<path d="M362.353 163.498C365.948 163.55 369.618 163.514 373.22 163.515C372.865 166.144 373.01 171.214 373.025 173.981L362.428 173.991C362.53 170.67 362.465 166.814 362.353 163.498Z" fill="#FEFEFE"/>
<path d="M223.911 286.515C230.802 286.535 238.431 286.335 245.225 286.54C248.797 286.61 252.37 286.612 255.94 286.55C259.417 286.542 263.067 286.478 266.53 286.543L266.52 296.84C269.995 296.83 273.812 296.75 277.25 296.942L277.272 306.99L330.482 307.02L330.535 317.432C327.077 317.41 323.435 317.333 319.995 317.478C319.99 324.195 319.91 331.052 319.982 337.757H330.52C330.517 341.135 330.47 344.602 330.515 347.975L330.505 358.212L309.28 358.18L309.307 347.967L298.517 347.985L287.965 347.995C287.937 344.577 287.94 341.16 287.972 337.745L277.142 337.79C277.347 331.488 277.14 323.872 277.172 317.455C270.432 317.217 262.785 317.355 255.997 317.39C255.955 313.945 255.977 310.455 255.975 307.005L223.989 306.987L224.001 317.43C216.836 317.365 209.67 317.372 202.505 317.455L202.519 327.478L191.998 327.505L192.016 337.755L170.526 337.787L170.501 347.96C163.538 348.09 156.288 348 149.302 348.007L149.322 358.26L117.258 358.255L117.261 368.505L85.0697 368.502C85.2737 365.827 85.1477 361.13 85.1625 358.305L95.949 358.24L95.9935 348.007L117.159 347.957C117.067 344.56 117.09 341.163 117.229 337.765L127.908 337.73L128.001 327.507L149.159 327.525C149.052 324.177 149.098 320.635 149.093 317.27L170.502 317.263C170.483 313.845 170.488 310.428 170.517 307.01L191.979 306.995L191.986 296.85C195.495 296.857 199.003 296.84 202.511 296.8L202.516 286.8C203.489 286.322 221.398 286.515 223.911 286.515Z" fill="black"/>
<path d="M287.99 327.505C295.05 327.472 302.112 327.477 309.172 327.517C309.195 330.957 309.16 334.397 309.062 337.835C312.592 337.805 316.48 337.687 319.982 337.757H330.52C330.517 341.135 330.47 344.602 330.515 347.975L330.505 358.212L309.28 358.18L309.307 347.967L298.517 347.985L287.965 347.995C287.937 344.577 287.94 341.16 287.972 337.745L287.99 327.505Z" fill="#B5B7BC"/>
<path d="M319.983 337.758H330.52C330.517 341.135 330.47 344.603 330.515 347.975L319.938 347.995L319.983 337.758Z" fill="black"/>
<path d="M287.972 337.745L298.507 337.765C298.505 341.088 298.432 344.685 298.517 347.985L287.965 347.995C287.937 344.577 287.94 341.16 287.972 337.745Z" fill="black"/>
<path d="M255.972 225.172C259.51 225.252 262.997 224.995 266.585 225.15C266.567 226.692 266.292 234.485 266.802 235.504L266.56 235.574C266.485 238.886 266.487 242.2 266.567 245.513C270.28 245.525 274.492 245.435 278.16 245.554L278.17 245.702L277.415 245.843C276.945 247.047 277.25 249.956 277.192 251.418C277.15 252.943 277.092 254.465 277.015 255.99C273.522 256.008 269.952 256.07 266.47 255.945C266.55 258.945 266.72 263 266.61 265.948L266.505 266.128L266.515 276.1C263.402 276.228 260.287 276.315 257.175 276.365L256.012 276.43C256.002 279.59 256.09 283.448 255.94 286.55C252.37 286.613 248.797 286.61 245.225 286.54C238.431 286.335 230.802 286.535 223.911 286.515C221.398 286.515 203.489 286.323 202.516 286.8L202.378 286.608C199.169 286.418 195.28 286.5 192.013 286.498L191.99 276.305C194.975 276.465 198.974 276.315 202.036 276.28L202.48 276.248C202.53 272.85 202.543 269.453 202.52 266.055C205.733 266.195 209.911 266.033 213.194 265.993L213.168 256.015C220.028 256.003 227.557 256.133 234.362 255.888L234.446 255.718C234.638 252.575 234.545 248.705 234.538 245.495C237.801 245.63 241.585 245.548 244.889 245.55L245.188 245.526C245.307 242.327 245.25 238.71 245.274 235.479L256.005 235.481L255.972 225.172Z" fill="#205A97"/>
<path d="M255.973 255.997C258.903 256.032 263.78 255.715 266.47 255.945C266.55 258.945 266.72 263 266.61 265.947L266.505 266.127L266.515 276.1C263.403 276.227 260.288 276.315 257.175 276.365L256.013 276.43C256.003 279.59 256.09 283.447 255.94 286.55C252.37 286.612 248.797 286.61 245.226 286.54C238.431 286.335 230.802 286.535 223.911 286.515C223.951 283.16 223.966 279.802 223.955 276.447C227.484 276.467 231.013 276.44 234.542 276.367L234.638 266.09C239.832 265.755 250.623 265.97 255.985 266.07L255.973 255.997Z" fill="#2E3E89"/>
<path d="M245.197 276.213C248.726 276.575 252.423 276.348 256.013 276.43C256.003 279.59 256.09 283.448 255.94 286.55C252.37 286.613 248.797 286.61 245.226 286.54L245.197 276.213Z" fill="#403385"/>
<path d="M255.927 266.185C259.452 266.045 262.98 266.025 266.505 266.127L266.515 276.1C263.402 276.228 260.287 276.315 257.175 276.365C256.655 276.347 256.752 276.332 256.24 276.172C255.662 274.932 255.945 268.072 255.927 266.185Z" fill="#403385"/>
<path d="M255.973 225.172C259.51 225.252 262.997 224.995 266.585 225.15C266.567 226.692 266.292 234.485 266.802 235.504L266.56 235.574C266.485 238.886 266.488 242.2 266.568 245.513C263.033 245.589 259.497 245.594 255.962 245.527C252.497 245.709 248.687 245.58 245.188 245.526C245.307 242.327 245.25 238.71 245.274 235.479L256.005 235.481L255.973 225.172Z" fill="#2E3E89"/>
<path d="M255.958 235.432C258.948 235.473 263.818 235.306 266.56 235.573C266.485 238.886 266.488 242.2 266.568 245.512C263.033 245.589 259.498 245.594 255.963 245.526L255.958 235.432Z" fill="black"/>
<path d="M213.168 256.015C220.028 256.002 227.557 256.132 234.362 255.887C234.914 257.062 234.506 264.14 234.517 265.965C227.508 266 220.209 265.88 213.247 266.005C213.248 269.42 213.213 272.895 213.252 276.302C211.554 276.305 203.378 276.445 202.48 276.247C202.53 272.85 202.543 269.452 202.52 266.055C205.733 266.195 209.911 266.032 213.194 265.992L213.168 256.015Z" fill="#2E3E89"/>
<path d="M234.538 245.495C237.801 245.629 241.586 245.547 244.889 245.549C245.567 246.417 245.243 254.293 245.258 255.973C243.147 255.97 236.111 256.052 234.446 255.717C234.638 252.575 234.545 248.704 234.538 245.495Z" fill="#2E3E89"/>
<path d="M191.99 276.305C194.975 276.465 198.974 276.315 202.036 276.28C202.876 276.87 202.537 285.26 202.378 286.608C199.169 286.418 195.28 286.5 192.013 286.498L191.99 276.305Z" fill="#2E3E89"/>
<path d="M330.515 347.975L341.405 347.983C341.275 351.31 341.315 354.865 341.3 358.213L362.507 358.245L362.55 368.51L287.987 368.485L287.95 358.223L298.5 358.205L298.517 347.985L309.307 347.968L309.28 358.18L330.505 358.213L330.515 347.975Z" fill="black"/>
</g>
<defs>
<clipPath id="clip0_2159_3">
<rect width="512" height="512" fill="white"/>
</clipPath>
</defs>
</svg>
